<svg width="25" height="24" viewBox="0 0 25 24" fill="none"
    xmlns="http://www.w3.org/2000/svg">
    <path d="M9.68246 15.7415C8.91084 15.9081 8.10654 15.8315 7.38025 15.5223C6.65396 15.213 6.0414 14.6861 5.62686 14.0143C5.21233 13.3425 5.01622 12.5587 5.06553 11.7709C5.11484 10.983 5.40716 10.2298 5.90219 9.61488C6.39726 9 7.07073 8.55368 7.82993 8.33736C8.58913 8.12101 9.3967 8.14533 10.1415 8.4069C10.8863 8.6685 11.5317 9.1545 11.9889 9.79805C12.4461 10.4416 12.6926 11.211 12.6944 12.0004H16.0682C16.0682 10.5796 15.6469 9.19061 14.8575 8.0092C14.0681 6.82778 12.9461 5.90701 11.6334 5.36325C10.3207 4.81952 8.87625 4.67725 7.4827 4.95445C6.08913 5.23165 4.80905 5.91586 3.80436 6.92056C2.79965 7.92525 2.11544 9.20533 1.83824 10.5989C1.56104 11.9925 1.70331 13.4369 2.24705 14.7497C2.79079 16.0623 3.71158 17.1843 4.893 17.9737C6.07441 18.7631 7.46337 19.1845 8.88422 19.1845C10.0359 19.1904 11.1718 18.9165 12.1942 18.3862C11.145 17.7334 10.2804 16.8229 9.68246 15.7415Z" fill="white"/>
    <path d="M15.7037 8.27479C16.4759 8.1074 17.2811 8.18372 18.0081 8.49324C18.7352 8.80273 19.3483 9.3302 19.7629 10.0029C20.1775 10.6755 20.3732 11.4603 20.323 12.2489C20.2728 13.0375 19.9792 13.791 19.4826 14.4057C18.9861 15.0204 18.311 15.4658 17.5506 15.6807C16.7902 15.8955 15.9818 15.8691 15.237 15.6051C14.4923 15.3412 13.8477 14.8526 13.3923 14.2069C12.9369 13.5612 12.693 12.79 12.6944 11.9998H9.31787C9.31787 13.5714 9.83208 15.0999 10.782 16.3518C11.732 17.6038 13.0655 18.5106 14.579 18.9338C16.0925 19.357 17.703 19.2734 19.1645 18.6957C20.6261 18.118 21.8585 17.078 22.6736 15.7343C23.4888 14.3907 23.8419 12.8172 23.6791 11.254C23.5164 9.69092 22.8466 8.22396 21.7721 7.07711C20.6976 5.93023 19.2773 5.16641 17.7281 4.90225C16.1789 4.63809 14.5858 4.88807 13.1919 5.61404C14.2435 6.27089 15.1085 7.18716 15.7037 8.27479Z" fill="white"/>
</svg>
