<svg width="24" height="24" viewBox="0 0 24 24" fill="none"
    xmlns="http://www.w3.org/2000/svg">
    <path d="M16.624 13.9198L19.341 16.6358L11.988 23.9888L4.636 16.6368L7.353 13.9198L11.989 18.5798L16.624 13.9198ZM21.261 9.28377L24 11.9998L21.285 14.7158L18.568 11.9998L21.261 9.28377ZM11.989 9.28377L14.705 11.9758L11.988 14.6928L9.272 11.9998L11.988 9.28477L11.989 9.28377ZM2.716 9.28377L5.41 11.9998L2.718 14.6918L0 11.9998L2.716 9.28377ZM11.99 0.00976562L19.342 7.33977L16.625 10.0548L11.989 5.41877L7.354 10.0788L4.637 7.36277L11.989 0.0107656L11.99 0.00976562Z" fill="#FEFEFE"/>
</svg>
