<svg width="197" height="197" viewBox="0 0 197 197" fill="none" xmlns="http://www.w3.org/2000/svg">
    <path opacity="0.4" d="M98.5 197C152.9 197 197 152.9 197 98.5C197 44.1 152.9 0 98.5 0C44.1 0 0 44.1 0 98.5C0 152.9 44.1 197 98.5 197Z" fill="currentColor" />
    <path d="M98.5 56.9658C81.5087 56.9658 67.7188 70.7558 67.7188 87.7471C67.7188 104.41 80.77 117.954 98.0896 118.446C98.3358 118.446 98.6642 118.446 98.8283 118.446C98.9925 118.446 99.2387 118.446 99.4029 118.446C99.485 118.446 99.5671 118.446 99.5671 118.446C116.148 117.872 129.199 104.41 129.281 87.7471C129.281 70.7558 115.491 56.9658 98.5 56.9658Z" fill="currentColor" />
    <path d="M154.152 158.914C139.542 172.375 120.006 180.666 98.5 180.666C76.9941 180.666 57.4583 172.375 42.8475 158.914C44.8175 151.444 50.1529 144.631 57.9508 139.378C80.3596 124.439 116.805 124.439 139.049 139.378C146.929 144.631 152.182 151.444 154.152 158.914Z" fill="currentColor" />
</svg>