<svg xmlns="http://www.w3.org/2000/svg" viewBox="0 0 88 66">
    <title>ELearningSVG</title>
    <path className="cls-1" d="M43.8,62.66h2.9a30.16,30.16,0,0,0,0-60.27H43.83l0,0a30.17,30.17,0,0,0,0,60.25ZM25.59,52a33.63,33.63,0,0,1,6.17-3.55A36,36,0,0,0,40.35,59.9,28,28,0,0,1,25.59,52Zm18.66,8.05A34.48,34.48,0,0,1,33.93,47.62a34.85,34.85,0,0,1,10.32-2Zm0-16.86A37.14,37.14,0,0,0,33,45.48a34.13,34.13,0,0,1-2.41-10.79H44.25Zm0-10.88H30.5A34.81,34.81,0,0,1,32.38,21.2a36.78,36.78,0,0,0,11.87,2.52ZM50.09,60A36,36,0,0,0,59,48.07a33.53,33.53,0,0,1,6.64,3.6A27.78,27.78,0,0,1,50.09,60ZM67.15,49.91a36,36,0,0,0-7.28-4,36.89,36.89,0,0,0,2.41-11.24H73.17A27.59,27.59,0,0,1,67.15,49.91ZM68,16.31a27.54,27.54,0,0,1,5.23,16H62.35a37,37,0,0,0-1.91-11.6A36.93,36.93,0,0,0,68,16.31Zm-1.44-1.83a35.13,35.13,0,0,1-6.95,4.07A36.48,36.48,0,0,0,50.09,5.1,27.73,27.73,0,0,1,66.58,14.48Zm-20-9.25A34.18,34.18,0,0,1,57.46,19.41a34.44,34.44,0,0,1-10.88,2Zm0,18.52A36.73,36.73,0,0,0,58.27,21.6,34.57,34.57,0,0,1,60,32.35H46.58Zm0,10.94H59.94a34.2,34.2,0,0,1-2.26,10.43,37.21,37.21,0,0,0-11.1-1.9Zm0,10.85a35.06,35.06,0,0,1,10.19,1.72A34.42,34.42,0,0,1,46.58,59.84ZM44.25,5V21.38a34.18,34.18,0,0,1-11-2.36A34.31,34.31,0,0,1,44.25,5Zm-3.9.18a36.51,36.51,0,0,0-9.27,12.92,34,34,0,0,1-6.47-4A27.86,27.86,0,0,1,40.35,5.17ZM23.13,15.89a36.89,36.89,0,0,0,7.1,4.38,37.17,37.17,0,0,0-2.06,12.09H17.59A27.53,27.53,0,0,1,23.13,15.89ZM17.67,34.7H28.24a37,37,0,0,0,2.58,11.66A35.64,35.64,0,0,0,24,50.3,27.53,27.53,0,0,1,17.67,34.7Z" />
</svg>