<svg width="76" height="77" viewBox="0 0 76 77" fill="none" xmlns="http://www.w3.org/2000/svg">
<path d="M60.268 8.5H13.5669V68.5H60.268C61.4617 68.5 62.4329 67.5288 62.4329 66.3351V10.6649C62.4329 9.47125 61.4617 8.5 60.268 8.5ZM19.7525 66.6443H15.4226V10.3557H19.7524V66.6443H19.7525ZM60.5773 66.3351C60.5773 66.5027 60.4356 66.6443 60.268 66.6443H21.6082V10.3557H60.268C60.4356 10.3557 60.5773 10.4973 60.5773 10.6649V66.3351Z" fill="#454545"/>
<path d="M57.794 55.5103H51.6084V57.3659H57.794V55.5103Z" fill="#454545"/>
<path d="M57.794 60.4585H45.4229V62.3142H57.794V60.4585Z" fill="#454545"/>
<path d="M50.9576 19.4047C48.3446 16.7797 44.8649 15.3233 41.1595 15.3042H41.0928C33.4187 15.3042 27.1753 21.5476 27.1753 29.2217C27.1753 32.9267 28.6146 36.4131 31.2281 39.0388C33.841 41.6638 37.3208 43.1202 41.031 43.1393H41.0928C48.767 43.1393 55.0104 36.896 55.0104 29.2217C55.0104 25.5166 53.5711 22.0304 50.9576 19.4047ZM41.0928 41.2836H41.0358C34.4162 41.2494 29.031 35.8384 29.031 29.2217C29.031 22.5708 34.4419 17.1599 41.0928 17.1599H41.152C47.7704 17.1955 53.1547 22.6059 53.1547 29.2217C53.1547 35.8727 47.7438 41.2836 41.0928 41.2836Z" fill="#454545"/>
<path d="M45.7319 26.1288V24.2732C45.7319 23.0795 44.7607 22.1083 43.567 22.1083H42.0206V19.3247H40.1649V22.1083H38.6185C37.4249 22.1083 36.4536 23.0795 36.4536 24.2732V27.9845C36.4536 29.1782 37.4249 30.1494 38.6185 30.1494H43.567C43.7346 30.1494 43.8763 30.2911 43.8763 30.4587V34.17C43.8763 34.3376 43.7346 34.4793 43.567 34.4793H38.6185C38.451 34.4793 38.3093 34.3376 38.3093 34.17V32.3144H36.4536V34.17C36.4536 35.3637 37.4249 36.3349 38.6185 36.3349H40.1649V39.1185H42.0206V36.3349H43.567C44.7607 36.3349 45.7319 35.3637 45.7319 34.17V30.4587C45.7319 29.265 44.7607 28.2938 43.567 28.2938H38.6185C38.451 28.2938 38.3093 28.1521 38.3093 27.9845V24.2732C38.3093 24.1056 38.451 23.9639 38.6185 23.9639H43.567C43.7346 23.9639 43.8763 24.1056 43.8763 24.2732V26.1288H45.7319Z" fill="#454545"/>
<path d="M24.7012 55.5103V62.3144H32.7425V55.5103H24.7012ZM30.8868 60.4586H26.5568V57.3659H30.8867V60.4586H30.8868Z" fill="#454545"/>
</svg>
