<svg width="40" height="41" viewBox="0 0 40 41" fill="none" xmlns="http://www.w3.org/2000/svg">
<g clip-path="url(#clip0_129_255)">
<path d="M22.5625 20.1099C22.5625 26.3224 17.5125 31.3599 11.28 31.3599C9.80066 31.3618 8.33541 31.0724 6.96793 30.5081C5.60044 29.9438 4.35749 29.1157 3.31005 28.071C2.2626 27.0264 1.43117 25.7856 0.863235 24.4197C0.295296 23.0537 0.00196852 21.5892 0 20.1099C0 13.8949 5.05 8.85988 11.28 8.85988C12.7596 8.85758 14.2251 9.14676 15.5928 9.71091C16.9606 10.2751 18.2039 11.1031 19.2516 12.1478C20.2993 13.1925 21.1309 14.4334 21.699 15.7995C22.2671 17.1657 22.5605 18.6303 22.5625 20.1099ZM34.9375 20.1099C34.9375 25.9599 32.4125 30.6999 29.2975 30.6999C26.1825 30.6999 23.6575 25.9574 23.6575 20.1099C23.6575 14.2599 26.1825 9.51988 29.2975 9.51988C32.4125 9.51988 34.9375 14.2624 34.9375 20.1099ZM40 20.1099C40 25.3499 39.1125 29.5974 38.015 29.5974C36.92 29.5974 36.0325 25.3474 36.0325 20.1099C36.0325 14.8699 36.92 10.6224 38.0175 10.6224C39.1125 10.6224 40 14.8699 40 20.1099Z" fill="#FEFEFE"/>
</g>
<defs>
<clipPath id="clip0_129_255">
<rect width="40" height="40" fill="white" transform="translate(0 0.109863)"/>
</clipPath>
</defs>
</svg>
