<svg width="40" height="41" viewBox="0 0 40 41" fill="none" xmlns="http://www.w3.org/2000/svg">
<g clip-path="url(#clip0_129_251)">
<path d="M33.8615 7.59665C31.3115 6.44665 28.5782 5.59665 25.7198 5.11332C25.6944 5.10843 25.668 5.11158 25.6444 5.12233C25.6208 5.13308 25.6012 5.1509 25.5882 5.17332C25.2382 5.78832 24.8482 6.58998 24.5748 7.22332C21.5433 6.77038 18.4613 6.77038 15.4298 7.22332C15.1254 6.52142 14.7821 5.83702 14.4015 5.17332C14.3886 5.15062 14.3691 5.1324 14.3456 5.12108C14.322 5.10977 14.2956 5.10589 14.2698 5.10998C11.4132 5.59332 8.67982 6.44332 6.12816 7.59498C6.10621 7.60419 6.08759 7.61989 6.07482 7.63998C0.888158 15.265 -0.533509 22.7016 0.164825 30.045C0.166768 30.063 0.17235 30.0804 0.181233 30.0961C0.190115 30.1119 0.202111 30.1257 0.216491 30.1366C3.24381 32.3407 6.62039 34.0197 10.2048 35.1033C10.2298 35.111 10.2565 35.111 10.2815 35.1033C10.3065 35.0955 10.3286 35.0804 10.3448 35.06C11.1161 34.0284 11.7997 32.934 12.3882 31.7883C12.3963 31.7726 12.401 31.7554 12.402 31.7378C12.4029 31.7201 12.4 31.7025 12.3935 31.6861C12.3871 31.6696 12.3771 31.6548 12.3644 31.6425C12.3517 31.6302 12.3365 31.6209 12.3198 31.615C11.2432 31.2095 10.2 30.7202 9.19983 30.1516C9.18185 30.1414 9.16671 30.1268 9.15575 30.1093C9.1448 30.0917 9.13837 30.0717 9.13705 30.0511C9.13573 30.0304 9.13955 30.0098 9.14818 29.991C9.15681 29.9722 9.16998 29.9558 9.18649 29.9433C9.39649 29.7883 9.60649 29.6266 9.80649 29.465C9.82449 29.4504 9.84618 29.4412 9.86913 29.4382C9.89208 29.4353 9.9154 29.4388 9.93649 29.4483C16.4815 32.3883 23.5698 32.3883 30.0382 29.4483C30.0593 29.4382 30.0829 29.4343 30.1061 29.4369C30.1294 29.4396 30.1515 29.4487 30.1698 29.4633C30.3698 29.6266 30.5782 29.7883 30.7898 29.9433C30.8065 29.9555 30.8199 29.9717 30.8288 29.9903C30.8377 30.009 30.8418 30.0295 30.8408 30.0502C30.8399 30.0708 30.8338 30.0909 30.8231 30.1086C30.8125 30.1263 30.7976 30.1411 30.7798 30.1516C29.7832 30.725 28.7465 31.21 27.6582 31.6133C27.6414 31.6194 27.6262 31.6289 27.6135 31.6414C27.6008 31.6538 27.5908 31.6688 27.5844 31.6853C27.5779 31.7019 27.5751 31.7197 27.576 31.7374C27.5769 31.7552 27.5816 31.7725 27.5898 31.7883C28.1898 32.9333 28.8765 34.0233 29.6315 35.0583C29.6472 35.0796 29.6691 35.0954 29.6941 35.1038C29.7192 35.1121 29.7462 35.1126 29.7715 35.105C33.3621 34.0244 36.7442 32.3446 39.7748 30.1366C39.7896 30.1263 39.802 30.1129 39.8112 30.0974C39.8204 30.0819 39.8262 30.0646 39.8282 30.0466C40.6615 21.5566 38.4315 14.18 33.9132 7.64332C33.9021 7.62207 33.8837 7.60551 33.8615 7.59665ZM13.3665 25.5733C11.3965 25.5733 9.77149 23.7916 9.77149 21.6066C9.77149 19.42 11.3648 17.64 13.3665 17.64C15.3832 17.64 16.9932 19.435 16.9615 21.6066C16.9615 23.7933 15.3682 25.5733 13.3665 25.5733ZM26.6582 25.5733C24.6865 25.5733 23.0632 23.7916 23.0632 21.6066C23.0632 19.42 24.6548 17.64 26.6582 17.64C28.6748 17.64 30.2848 19.435 30.2532 21.6066C30.2532 23.7933 28.6765 25.5733 26.6582 25.5733Z" fill="#FEFEFE"/>
</g>
<defs>
<clipPath id="clip0_129_251">
<rect width="40" height="40" fill="white" transform="translate(0 0.109863)"/>
</clipPath>
</defs>
</svg>
