<svg width="41" height="41" viewBox="0 0 41 41" fill="none" xmlns="http://www.w3.org/2000/svg">
<path d="M39.9049 8.33816C38.5132 8.95483 37.0182 9.3715 35.4465 9.55983C37.0682 8.58948 38.2814 7.06227 38.8599 5.26316C37.3363 6.16814 35.6688 6.80515 33.9299 7.1465C32.7605 5.89794 31.2116 5.07037 29.5237 4.79229C27.8358 4.5142 26.1034 4.80115 24.5953 5.60858C23.0872 6.41602 21.8878 7.69877 21.1834 9.25767C20.4791 10.8166 20.3091 12.5644 20.6999 14.2298C17.6127 14.0748 14.5926 13.2724 11.8356 11.8747C9.07856 10.4769 6.64626 8.5151 4.69652 6.1165C4.02986 7.2665 3.64652 8.59983 3.64652 10.0198C3.64578 11.2982 3.96058 12.5569 4.56299 13.6844C5.1654 14.8119 6.03679 15.7732 7.09986 16.4832C5.86698 16.4439 4.66131 16.1108 3.58319 15.5115V15.6115C3.58307 17.4044 4.20324 19.1421 5.3385 20.5298C6.47375 21.9175 8.05414 22.8697 9.81152 23.2248C8.66783 23.5344 7.46875 23.5799 6.30486 23.3582C6.80069 24.9009 7.76652 26.2499 9.06714 27.2164C10.3678 28.1829 11.9381 28.7185 13.5582 28.7482C10.8079 30.9072 7.41134 32.0783 3.91486 32.0732C3.29549 32.0733 2.67665 32.0372 2.06152 31.9648C5.61065 34.2468 9.74209 35.4579 13.9615 35.4532C28.2449 35.4532 36.0532 23.6232 36.0532 13.3632C36.0532 13.0298 36.0449 12.6932 36.0299 12.3598C37.5487 11.2615 38.8597 9.90132 39.9015 8.34316L39.9049 8.33816Z" fill="#FEFEFE"/>
</svg>
