<svg width="24" height="25" viewBox="0 0 24 25" fill="none" xmlns="http://www.w3.org/2000/svg">
    <path d="M21.5297 16.4294C21.3697 16.1594 20.9197 15.7394 19.7997 15.9394C19.1797 16.0494 18.5497 16.0994 17.9197 16.0694C15.5897 15.9694 13.4797 14.8994 12.0097 13.2494C10.7097 11.7994 9.90971 9.90938 9.89971 7.86938C9.89971 6.72938 10.1197 5.62938 10.5697 4.58938C11.0097 3.57938 10.6997 3.04938 10.4797 2.82938C10.2497 2.59938 9.70971 2.27938 8.64971 2.71938C4.55971 4.43938 2.02971 8.53938 2.32971 12.9294C2.62971 17.0594 5.52971 20.5894 9.36971 21.9194C10.2897 22.2394 11.2597 22.4294 12.2597 22.4694C12.4197 22.4794 12.5797 22.4894 12.7397 22.4894C16.0897 22.4894 19.2297 20.9094 21.2097 18.2194C21.8797 17.2894 21.6997 16.6994 21.5297 16.4294Z" fill="#395CE0" />
</svg>