<svg width="24" height="24" viewBox="0 0 24 24" fill="none" xmlns="http://www.w3.org/2000/svg">
    <path d="M18.8751 3.25039C18.3778 3.25039 17.9009 3.44794 17.5493 3.79957C17.1976 4.1512 17.0001 4.62811 17.0001 5.12539C17.0001 5.62267 17.1976 6.09959 17.5493 6.45122C17.9009 6.80285 18.3778 7.00039 18.8751 7.00039C19.3724 7.00039 19.8493 6.80285 20.2009 6.45122C20.5525 6.09959 20.7501 5.62267 20.7501 5.12539C20.7501 4.62811 20.5525 4.1512 20.2009 3.79957C19.8493 3.44794 19.3724 3.25039 18.8751 3.25039ZM15.7501 5.12539C15.75 4.39218 16.0077 3.68229 16.4782 3.11991C16.9486 2.55753 17.6018 2.17847 18.3235 2.04906C19.0452 1.91966 19.7895 2.04813 20.426 2.41202C21.0625 2.77591 21.5509 3.35203 21.8055 4.03959C22.0602 4.72715 22.065 5.48237 21.8191 6.17311C21.5732 6.86385 21.0922 7.44613 20.4603 7.81807C19.8285 8.19001 19.0859 8.32794 18.3627 8.20771C17.6394 8.08748 16.9814 7.71675 16.5038 7.16039L8.10634 11.0604C8.29939 11.6722 8.29939 12.3286 8.10634 12.9404L16.5038 16.8404C17.0086 16.2533 17.7134 15.8745 18.4816 15.7775C19.2497 15.6804 20.0266 15.8719 20.6616 16.315C21.2965 16.7581 21.7444 17.4211 21.9184 18.1755C22.0924 18.93 21.9801 19.7222 21.6033 20.3986C21.2265 21.075 20.612 21.5874 19.8789 21.8366C19.1458 22.0857 18.3464 22.0539 17.6354 21.7472C16.9245 21.4404 16.3527 20.8807 16.031 20.1765C15.7092 19.4722 15.6603 18.6736 15.8938 17.9354L7.49634 14.0354C7.08063 14.5199 6.52653 14.8654 5.90856 15.0255C5.2906 15.1856 4.63842 15.1526 4.03976 14.931C3.4411 14.7093 2.92468 14.3097 2.55997 13.7858C2.19526 13.2618 1.99976 12.6388 1.99976 12.0004C1.99976 11.362 2.19526 10.739 2.55997 10.215C2.92468 9.6911 3.4411 9.29144 4.03976 9.06979C4.63842 8.84815 5.2906 8.81517 5.90856 8.97529C6.52653 9.1354 7.08063 9.48093 7.49634 9.96539L15.8938 6.06539C15.7982 5.76123 15.7498 5.44422 15.7501 5.12539ZM5.12509 10.1254C4.62781 10.1254 4.15089 10.3229 3.79926 10.6746C3.44763 11.0262 3.25009 11.5031 3.25009 12.0004C3.25009 12.4977 3.44763 12.9746 3.79926 13.3262C4.15089 13.6778 4.62781 13.8754 5.12509 13.8754C5.62237 13.8754 6.09928 13.6778 6.45091 13.3262C6.80254 12.9746 7.00009 12.4977 7.00009 12.0004C7.00009 11.5031 6.80254 11.0262 6.45091 10.6746C6.09928 10.3229 5.62237 10.1254 5.12509 10.1254ZM18.8751 17.0004C18.3778 17.0004 17.9009 17.1979 17.5493 17.5496C17.1976 17.9012 17.0001 18.3781 17.0001 18.8754C17.0001 19.3727 17.1976 19.8496 17.5493 20.2012C17.9009 20.5528 18.3778 20.7504 18.8751 20.7504C19.3724 20.7504 19.8493 20.5528 20.2009 20.2012C20.5525 19.8496 20.7501 19.3727 20.7501 18.8754C20.7501 18.3781 20.5525 17.9012 20.2009 17.5496C19.8493 17.1979 19.3724 17.0004 18.8751 17.0004Z" fill="currentColor" />
</svg>