<svg width="32" height="32" viewBox="0 0 32 32" fill="none" xmlns="http://www.w3.org/2000/svg">
    <path d="M25 26H7C6.59 26 6.25 25.66 6.25 25.25C6.25 24.84 6.59 24.5 7 24.5H25C25.41 24.5 25.75 24.84 25.75 25.25C25.75 25.66 25.41 26 25 26Z" fill="currentColor" />
    <path d="M23.0201 7.47991C21.0801 5.53991 19.1801 5.48991 17.1901 7.47991L15.9801 8.68991C15.8801 8.78991 15.8401 8.94991 15.8801 9.08991C16.6401 11.7399 18.7601 13.8599 21.4101 14.6199C21.4501 14.6299 21.4901 14.6399 21.5301 14.6399C21.6401 14.6399 21.7401 14.5999 21.8201 14.5199L23.0201 13.3099C24.0101 12.3299 24.4901 11.3799 24.4901 10.4199C24.5001 9.42991 24.0201 8.46991 23.0201 7.47991Z" fill="currentColor" />
    <path d="M19.6098 15.53C19.3198 15.39 19.0398 15.25 18.7698 15.09C18.5498 14.96 18.3398 14.82 18.1298 14.67C17.9598 14.56 17.7598 14.4 17.5698 14.24C17.5498 14.23 17.4798 14.17 17.3998 14.09C17.0698 13.81 16.6998 13.45 16.3698 13.05C16.3398 13.03 16.2898 12.96 16.2198 12.87C16.1198 12.75 15.9498 12.55 15.7998 12.32C15.6798 12.17 15.5398 11.95 15.4098 11.73C15.2498 11.46 15.1098 11.19 14.9698 10.91C14.9486 10.8647 14.9281 10.8195 14.9083 10.7746C14.7607 10.4413 14.3261 10.3438 14.0683 10.6016L8.33983 16.33C8.20983 16.46 8.08983 16.71 8.05983 16.88L7.51983 20.71C7.41983 21.39 7.60983 22.03 8.02983 22.46C8.38983 22.81 8.88983 23 9.42983 23C9.54983 23 9.66983 22.99 9.78983 22.97L13.6298 22.43C13.8098 22.4 14.0598 22.28 14.1798 22.15L19.9011 16.4287C20.1607 16.1692 20.0628 15.7237 19.7252 15.5797C19.6872 15.5634 19.6488 15.5469 19.6098 15.53Z" fill="currentColor" />
</svg>