<svg width="32" height="32" viewBox="0 0 32 32" fill="none" xmlns="http://www.w3.org/2000/svg">
    <path d="M9.29183 9.29202C9.38473 9.19889 9.49508 9.125 9.61657 9.07459C9.73806 9.02418 9.8683 8.99823 9.99983 8.99823C10.1314 8.99823 10.2616 9.02418 10.3831 9.07459C10.5046 9.125 10.6149 9.19889 10.7078 9.29202L15.9998 14.586L21.2918 9.29202C21.3848 9.19904 21.4952 9.12529 21.6167 9.07497C21.7381 9.02465 21.8683 8.99875 21.9998 8.99875C22.1313 8.99875 22.2615 9.02465 22.383 9.07497C22.5045 9.12529 22.6149 9.19904 22.7078 9.29202C22.8008 9.38499 22.8746 9.49537 22.9249 9.61685C22.9752 9.73833 23.0011 9.86853 23.0011 10C23.0011 10.1315 22.9752 10.2617 22.9249 10.3832C22.8746 10.5047 22.8008 10.615 22.7078 10.708L17.4138 16L22.7078 21.292C22.8008 21.385 22.8746 21.4954 22.9249 21.6168C22.9752 21.7383 23.0011 21.8685 23.0011 22C23.0011 22.1315 22.9752 22.2617 22.9249 22.3832C22.8746 22.5047 22.8008 22.615 22.7078 22.708C22.6149 22.801 22.5045 22.8747 22.383 22.9251C22.2615 22.9754 22.1313 23.0013 21.9998 23.0013C21.8683 23.0013 21.7381 22.9754 21.6167 22.9251C21.4952 22.8747 21.3848 22.801 21.2918 22.708L15.9998 17.414L10.7078 22.708C10.6149 22.801 10.5045 22.8747 10.383 22.9251C10.2615 22.9754 10.1313 23.0013 9.99983 23.0013C9.86835 23.0013 9.73815 22.9754 9.61667 22.9251C9.49519 22.8747 9.38481 22.801 9.29183 22.708C9.19886 22.615 9.12511 22.5047 9.07479 22.3832C9.02447 22.2617 8.99857 22.1315 8.99857 22C8.99857 21.8685 9.02447 21.7383 9.07479 21.6168C9.12511 21.4954 9.19886 21.385 9.29183 21.292L14.5858 16L9.29183 10.708C9.19871 10.6151 9.12482 10.5048 9.07441 10.3833C9.024 10.2618 8.99805 10.1316 8.99805 10C8.99805 9.86848 9.024 9.73824 9.07441 9.61675C9.12482 9.49526 9.19871 9.38491 9.29183 9.29202Z" />
</svg>