<svg width="20" height="20" viewBox="0 0 20 20" fill="none" xmlns="http://www.w3.org/2000/svg">
    <g clip-path="url(#clip0_873_4882)">
        <path d="M8.63234 0.19961C7.76234 0.589609 6.85234 1.68961 6.23234 3.09961C6.05234 3.50961 5.90234 3.90961 5.90234 3.96961C5.90234 4.06961 6.30234 4.09961 7.55234 4.09961H9.20234V2.10961C9.20234 1.00961 9.16234 0.0896096 9.12234 0.0596094C9.08234 0.0396094 8.86234 0.0996094 8.63234 0.19961Z" fill="currentColor" />
        <path d="M10 2.04961V4.09961H11.65C12.56 4.09961 13.3 4.08961 13.3 4.06961C13.3 4.04961 13.19 3.74961 13.04 3.40961C12.35 1.69961 11.35 0.519609 10.25 0.0996089L10 -0.000391006V2.04961Z" fill="currentColor" />
        <path d="M6.09969 0.639609C4.39969 1.34961 3.08969 2.31961 2.00969 3.67961L1.67969 4.09961H3.32969H4.96969L5.08969 3.66961C5.28969 2.97961 5.94969 1.68961 6.43969 1.01961C6.68969 0.679609 6.83969 0.399609 6.76969 0.399609C6.70969 0.409609 6.39969 0.509609 6.09969 0.639609Z" fill="currentColor" />
        <path d="M12.482 0.749617C12.922 1.23962 13.532 2.31962 13.912 3.26962L14.242 4.09962H15.822C17.652 4.09962 17.602 4.16962 16.652 3.11962C15.692 2.05962 14.482 1.22962 13.132 0.689617C12.212 0.319617 12.112 0.329617 12.482 0.749617Z" fill="currentColor" />
        <path d="M0.810469 5.70961C0.490469 6.42961 0.170469 7.61961 0.0504688 8.56961L-0.0195312 9.09961H2.08047H4.17047L4.23047 8.06961C4.29047 7.10961 4.52047 5.51961 4.66047 5.15961C4.72047 5.01961 4.54047 4.99961 2.92047 4.99961H1.13047L0.810469 5.70961Z" fill="currentColor" />
        <path d="M5.37 5.81961C5.19 6.70961 5 8.24961 5 8.76961V9.09961H7.1H9.2V7.04961V4.99961H7.36H5.53L5.37 5.81961Z" fill="currentColor" />
        <path d="M10 7.04961V9.09961H12.05H14.1V8.46961C14.1 7.80961 13.88 6.21961 13.69 5.45961L13.58 4.99961H11.79H10V7.04961Z" fill="currentColor" />
        <path d="M14.5405 5.31961C14.6705 5.96961 14.8905 7.56961 14.9505 8.31961L15.0205 9.09961H17.0705H19.1305L19.0705 8.41961C18.9905 7.58961 18.6905 6.47961 18.3005 5.63961L18.0105 4.99961H16.2405H14.4805L14.5405 5.31961Z" fill="currentColor" />
        <path d="M0.0521875 10.5696C0.152188 11.4496 0.472188 12.6196 0.812188 13.3996L1.13219 14.0996H2.90219H4.68219L4.58219 13.6796C4.41219 12.8996 4.20219 11.2596 4.20219 10.6196V9.99961H2.09219H-0.0078125L0.0521875 10.5696Z" fill="currentColor" />
        <path d="M5 10.3196C5 10.8496 5.19 12.3896 5.37 13.2696L5.53 14.0996H7.36H9.2V12.0496V9.99961H7.1H5V10.3196Z" fill="currentColor" />
        <path d="M10 12.0496C10 13.1796 10.04 14.0996 10.08 14.0996C10.13 14.0996 10.24 13.8596 10.33 13.5596C10.56 12.8396 11.19 11.9096 11.83 11.3496C12.37 10.8696 13.59 10.1996 13.91 10.1996C14.02 10.1996 14.1 10.1496 14.1 10.0996C14.1 10.0396 13.35 9.99961 12.05 9.99961H10V12.0496Z" fill="currentColor" />
        <path d="M16.79 10.16C17.09 10.24 17.63 10.46 17.99 10.65C18.35 10.84 18.68 11 18.71 11C18.9 11 19.1 10.65 19.1 10.34V10L17.68 10.01H16.25L16.79 10.16Z" fill="currentColor" />
        <path d="M14.3522 10.9395C12.0822 11.4895 10.5122 13.8195 10.8822 16.0695C11.2122 18.0495 12.7622 19.5895 14.7422 19.9195C16.6322 20.2295 18.6822 19.1295 19.5122 17.3495C20.3722 15.5095 20.0422 13.6295 18.6122 12.1895C17.4222 11.0095 15.9022 10.5595 14.3522 10.9395ZM15.6922 12.6395C15.7722 12.7295 15.8022 13.3595 15.7822 14.6595L15.7522 16.5495L15.4622 16.5795C15.3022 16.5995 15.1422 16.5595 15.0922 16.4795C14.9522 16.2695 14.9822 12.7595 15.1222 12.6195C15.2822 12.4595 15.5522 12.4695 15.6922 12.6395ZM15.7022 17.6495C15.9622 17.9695 15.5722 18.4595 15.2322 18.2395C15.0022 18.0995 14.9522 17.8295 15.1022 17.6495C15.2622 17.4595 15.5422 17.4595 15.7022 17.6495Z" fill="currentColor" />
        <path d="M1.92141 15.3192C2.30141 15.8692 3.42141 16.9392 4.06141 17.3792C4.97141 17.9892 6.44141 18.6992 6.81141 18.6992C6.86141 18.6992 6.69141 18.4192 6.44141 18.0692C5.95141 17.4192 5.31141 16.1492 5.09141 15.4192L4.97141 14.9992H3.33141H1.69141L1.92141 15.3192Z" fill="currentColor" />
        <path d="M6.04859 15.6092C6.64859 17.1292 7.60859 18.3892 8.51859 18.8392C8.79859 18.9792 9.06859 19.0692 9.10859 19.0392C9.15859 19.0092 9.19859 18.0892 9.19859 16.9892V14.9992H7.50859H5.80859L6.04859 15.6092Z" fill="currentColor" />
        <path d="M10.0098 17.6196C9.99975 18.4396 10.0298 19.0996 10.0698 19.0996C10.2098 19.0996 11.0098 18.6696 10.9798 18.6096C10.9598 18.5796 10.7998 18.2496 10.6098 17.8696C10.4198 17.4996 10.2098 16.9596 10.1398 16.6696C10.0198 16.1696 10.0198 16.2196 10.0098 17.6196Z" fill="currentColor" />
    </g>
    <defs>
        <clipPath id="clip0_873_4882">
            <rect width="20" height="20" fill="currentColor" />
        </clipPath>
    </defs>
</svg>