<svg width="21" height="21" viewBox="0 0 21 21" fill="none" xmlns="http://www.w3.org/2000/svg">
    <path d="M10.5 1.75C5.67875 1.75 1.75 5.67875 1.75 10.5C1.75 15.3212 5.67875 19.25 10.5 19.25C15.3212 19.25 19.25 15.3212 19.25 10.5C19.25 5.67875 15.3212 1.75 10.5 1.75ZM13.44 12.5125C13.6937 12.7663 13.6937 13.1862 13.44 13.44C13.3088 13.5712 13.1425 13.6325 12.9762 13.6325C12.81 13.6325 12.6438 13.5712 12.5125 13.44L10.5 11.4275L8.4875 13.44C8.35625 13.5712 8.19 13.6325 8.02375 13.6325C7.8575 13.6325 7.69125 13.5712 7.56 13.44C7.30625 13.1862 7.30625 12.7663 7.56 12.5125L9.5725 10.5L7.56 8.4875C7.30625 8.23375 7.30625 7.81375 7.56 7.56C7.81375 7.30625 8.23375 7.30625 8.4875 7.56L10.5 9.5725L12.5125 7.56C12.7663 7.30625 13.1862 7.30625 13.44 7.56C13.6937 7.81375 13.6937 8.23375 13.44 8.4875L11.4275 10.5L13.44 12.5125Z" fill="currentColor" />
</svg>