<svg width="20" height="20" viewBox="0 0 20 20" fill="none" xmlns="http://www.w3.org/2000/svg">
    <path d="M2 10C2 7.87827 2.84285 5.84344 4.34315 4.34315C5.84344 2.84285 7.87827 2 10 2C12.1217 2 14.1566 2.84285 15.6569 4.34315C17.1571 5.84344 18 7.87827 18 10C18 12.1217 17.1571 14.1566 15.6569 15.6569C14.1566 17.1571 12.1217 18 10 18C7.87827 18 5.84344 17.1571 4.34315 15.6569C2.84285 14.1566 2 12.1217 2 10ZM10 3C9.915 3 9.83 3.002 9.745 3.005C9.863 3.227 9.998 3.509 10.118 3.828C10.398 4.574 10.645 5.645 10.203 6.586C9.799 7.446 9.106 7.67 8.571 7.808L8.474 7.833C7.968 7.963 7.719 8.027 7.544 8.293C7.374 8.55 7.415 8.867 7.581 9.406L7.619 9.53C7.686 9.741 7.763 9.987 7.803 10.218C7.853 10.504 7.863 10.854 7.69 11.188C7.51 11.531 7.276 11.762 7 11.912C6.76554 12.0307 6.51319 12.1101 6.253 12.147L6.165 12.162C5.758 12.234 5.52 12.275 5.298 12.513C5.121 12.703 5.02 13.021 4.962 13.454C4.938 13.632 4.924 13.809 4.909 13.988L4.902 14.083C4.88929 14.2862 4.8629 14.4883 4.823 14.688L4.818 14.708C5.47359 15.431 6.27347 16.0085 7.16604 16.4033C8.05861 16.7981 9.02403 17.0014 10 17C11.35 17 12.612 16.617 13.682 15.955C13.5845 15.8581 13.4927 15.7556 13.407 15.648C13.136 15.308 12.798 14.739 12.915 14.078C12.971 13.765 13.141 13.497 13.312 13.284C13.487 13.068 13.698 12.867 13.888 12.692L14.016 12.575C14.162 12.442 14.289 12.325 14.398 12.212C14.545 12.058 14.589 11.975 14.598 11.949C14.666 11.723 14.585 11.545 14.472 11.457C14.378 11.384 14.177 11.315 13.862 11.515C13.7569 11.5828 13.6491 11.6466 13.539 11.706C13.4343 11.7645 13.3208 11.8057 13.203 11.828C13.1048 11.8457 13.0037 11.8387 12.9088 11.8079C12.8138 11.777 12.728 11.7231 12.659 11.651C12.5649 11.5457 12.5031 11.4155 12.481 11.276C12.466 11.1846 12.456 11.0925 12.451 11L12.446 10.934C12.44 10.86 12.435 10.784 12.426 10.696C12.4012 10.4175 12.3534 10.1416 12.283 9.871C12.156 9.38 11.843 8.983 11.519 8.571L11.377 8.39C11.217 8.184 11.014 7.912 10.941 7.62C10.8923 7.43957 10.9006 7.24847 10.965 7.073C11.037 6.883 11.168 6.737 11.317 6.625C11.745 6.305 12.445 5.612 13.06 4.973C13.363 4.659 13.636 4.366 13.835 4.151L13.84 4.145C12.6997 3.39558 11.3645 2.99745 10 3ZM14.638 4.757L14.569 4.831C14.368 5.049 14.089 5.347 13.781 5.667C13.179 6.293 12.429 7.04 11.926 7.42C11.956 7.486 12.026 7.596 12.168 7.779L12.292 7.937C12.608 8.334 13.066 8.909 13.251 9.62C13.354 10.015 13.398 10.345 13.422 10.604L13.423 10.614C14.011 10.284 14.633 10.318 15.083 10.667C15.542 11.021 15.736 11.638 15.555 12.239C15.474 12.507 15.282 12.734 15.121 12.903C14.9772 13.0497 14.8284 13.1914 14.675 13.328C14.6383 13.3612 14.6016 13.3946 14.565 13.428C14.377 13.602 14.215 13.76 14.091 13.913C13.964 14.07 13.913 14.181 13.9 14.255C13.86 14.482 13.972 14.752 14.19 15.027C14.291 15.155 14.399 15.261 14.481 15.337L14.506 15.358C15.2879 14.7016 15.9165 13.8818 16.3474 12.9562C16.7783 12.0307 17.001 11.0219 17 10.001C17.0012 9.00931 16.7912 8.02873 16.384 7.12453C15.9767 6.22033 15.3815 5.41325 14.638 4.757ZM8.798 3.354C8.75539 3.27734 8.71104 3.20165 8.665 3.127C7.56842 3.34024 6.53877 3.81272 5.66202 4.505C4.78526 5.19728 4.08684 6.08926 3.62507 7.10647C3.1633 8.12368 2.95157 9.2366 3.00758 10.3523C3.06358 11.468 3.38569 12.5541 3.947 13.52C3.95408 13.4539 3.96208 13.3879 3.971 13.322C4.033 12.855 4.164 12.263 4.567 11.831C5.029 11.336 5.593 11.243 5.971 11.181L6.079 11.162C6.282 11.126 6.415 11.092 6.522 11.034C6.64548 10.963 6.74344 10.8549 6.802 10.725C6.832 10.671 6.85 10.578 6.818 10.389C6.78066 10.2074 6.7319 10.0284 6.672 9.853L6.625 9.7C6.472 9.203 6.251 8.438 6.709 7.742C7.109 7.135 7.749 6.98 8.186 6.873L8.321 6.84C8.788 6.72 9.092 6.598 9.298 6.16C9.559 5.604 9.441 4.868 9.182 4.18C9.074 3.8958 8.94566 3.61976 8.798 3.354Z" fill="currentColor" />
</svg>