<svg width="24" height="24" viewBox="0 0 24 24" fill="none" xmlns="http://www.w3.org/2000/svg">
<path d="M4.41502 1.87542C3.43467 1.95979 2.62306 2.04015 2.61101 2.05221C2.57886 2.08033 2.27351 5.82497 2.30163 5.84908C2.3177 5.86917 3.45476 5.97765 3.47083 5.96158C3.47485 5.95756 3.51502 5.51158 3.55922 4.97319C3.60744 4.4348 3.64761 3.98479 3.65565 3.98078C3.66369 3.97274 4.06547 4.36649 4.54761 4.84863L5.43154 5.73256L4.89717 6.26694L4.36681 6.79729L4.78869 7.21917L5.21056 7.64104L5.74494 7.10667L6.27529 6.57631L6.84181 7.15087L7.40833 7.7214L7.17529 8.04283C6.72529 8.66158 6.37976 9.44908 6.21101 10.2326C6.13467 10.5861 6.1186 10.779 6.11458 11.4379C6.11458 12.2977 6.15476 12.583 6.37976 13.2861C7.03065 15.2991 8.80253 16.8701 10.8557 17.2437C11.0565 17.2799 11.2574 17.3201 11.3097 17.3281L11.3981 17.3442V18.4089V19.4736H10.5744H9.75074V20.0763V20.679H10.5744H11.3981V21.4826V22.2861H12.0007H12.6034V21.4826V20.679H13.4271H14.2507V20.0763V19.4736H13.4271H12.6034V18.4089V17.3442L12.6958 17.3281C13.5757 17.1714 14.1141 17.0147 14.6204 16.7576C16.2516 15.9379 17.4007 14.4473 17.7945 12.6312C17.8708 12.2857 17.8829 12.0968 17.8829 11.4379C17.8829 10.7227 17.8708 10.6102 17.7704 10.1723C17.5775 9.34462 17.2561 8.6214 16.786 7.98256L16.5891 7.71337L18.4655 5.83703L20.3418 3.96069L20.4302 5.05354C20.4824 5.65622 20.5306 6.15845 20.5387 6.16649C20.5548 6.18658 21.6918 6.09819 21.7119 6.0781C21.724 6.06604 21.3985 2.06426 21.3865 2.05221C21.3744 2.04015 17.3726 1.71471 17.3606 1.72274C17.3405 1.74685 17.2521 2.8839 17.2722 2.89997C17.2802 2.91203 17.7824 2.96024 18.3851 3.00846L19.478 3.09685L17.6016 4.97319L15.7293 6.84551L15.3998 6.61247C14.765 6.15444 13.861 5.77676 13.0333 5.62408C12.5311 5.53167 11.4704 5.53167 10.9682 5.62408C10.1405 5.77676 9.22842 6.15845 8.60565 6.61247L8.28422 6.84551L7.71369 6.27899L7.13913 5.71247L7.66949 5.18212L8.20386 4.64774L7.78199 4.22587L7.36011 3.80399L6.82976 4.33435L6.29538 4.86872L5.41145 3.98479C4.92931 3.50265 4.53556 3.10087 4.53958 3.09283C4.54761 3.08881 4.9936 3.04462 5.53199 3.00042C6.07038 2.95622 6.51636 2.91203 6.52038 2.90801C6.5244 2.89997 6.42797 1.75488 6.41994 1.72274C6.4119 1.70667 6.23511 1.72274 4.41502 1.87542ZM12.6878 6.79729C13.7204 6.94997 14.5882 7.39194 15.3356 8.14328C16.5771 9.38078 17.011 11.1928 16.4766 12.8924C15.9623 14.5196 14.524 15.7852 12.8525 16.0785C12.4467 16.1509 11.6552 16.1629 11.2775 16.1027C8.68601 15.6848 6.94226 13.2701 7.36011 10.6785C7.52083 9.7022 7.97083 8.83033 8.68601 8.12319C9.75878 7.05846 11.2173 6.57229 12.6878 6.79729Z" fill="black"/>
</svg>
