<svg width="77" height="76" viewBox="0 0 77 76" fill="none" xmlns="http://www.w3.org/2000/svg">
<path d="M62.1327 19.4527H51.2089C50.938 18.689 50.332 18.083 49.5684 17.8121V14.3671C49.5684 11.8928 47.5555 9.87988 45.0812 9.87988H31.9186C29.4443 9.87988 27.4314 11.8928 27.4314 14.3671V17.8121C26.6677 18.0829 26.0617 18.689 25.7909 19.4527H14.8671C12.3928 19.4527 10.3799 21.4655 10.3799 23.9399V61.6327C10.3799 64.107 12.3928 66.1199 14.8671 66.1199H62.1327C64.607 66.1199 66.6199 64.107 66.6199 61.6327V23.9399C66.6199 21.4655 64.607 19.4527 62.1327 19.4527ZM31.9186 11.6747H45.0812C46.2511 11.6747 47.2487 12.4251 47.6191 13.4696H29.3807C29.751 12.4252 30.7487 11.6747 31.9186 11.6747ZM29.2262 15.2645H47.7734V19.4527H29.2262V15.2645ZM14.8671 64.325C13.3826 64.325 12.1747 63.1173 12.1747 61.6327V55.3931C16.9031 55.8215 20.6782 59.5966 21.1066 64.3249H14.8671V64.325ZM64.825 61.6327C64.825 63.1173 63.6172 64.325 62.1327 64.325H55.8931C56.3215 59.5967 60.0966 55.8216 64.8249 55.3932V61.6327H64.825ZM64.825 33.8118C64.825 35.2964 63.6172 36.5041 62.1327 36.5041H46.5258C46.0778 32.4713 42.6501 29.3245 38.4999 29.3245C34.0462 29.3245 30.4229 32.9478 30.4229 37.4016C30.4229 40.8524 32.6041 43.8908 35.8075 45.0191V47.2736H33.1151C32.6194 47.2736 32.2177 47.6754 32.2177 48.171V51.7608C32.2177 52.2564 32.6194 52.6582 33.1151 52.6582H35.8075V55.3506C35.8075 55.8462 36.2092 56.248 36.7049 56.248H40.2947C40.7905 56.248 41.1922 55.8462 41.1922 55.3506V52.6582H43.8845C44.3803 52.6582 44.782 52.2564 44.782 51.7608V48.171C44.782 47.6754 44.3803 47.2736 43.8845 47.2736H41.1922V45.0191C44.1144 43.9898 46.1853 41.3707 46.5264 38.299H62.1327C63.1421 38.299 64.0745 37.9639 64.825 37.3992V53.5898C59.1059 54.0269 54.527 58.6058 54.0899 64.3249H22.9099C22.4728 58.6058 17.8939 54.0269 12.1747 53.5898V37.3992C12.9252 37.9639 13.8576 38.299 14.8671 38.299H27.7305C28.2262 38.299 28.6279 37.8972 28.6279 37.4016C28.6279 36.906 28.2262 36.5041 27.7305 36.5041H14.8671C13.3826 36.5041 12.1747 35.2964 12.1747 33.8118V23.9399C12.1747 22.4552 13.3826 21.2475 14.8671 21.2475H62.1327C63.6172 21.2475 64.825 22.4552 64.825 23.9399V33.8118ZM40.2947 49.0684H42.9871V50.8632H40.2947C39.799 50.8632 39.3973 51.2651 39.3973 51.7607V54.4531H37.6025V51.7607C37.6025 51.2651 37.2008 50.8632 36.705 50.8632H34.0127V49.0684H36.705C37.2008 49.0684 37.6025 48.6666 37.6025 48.171V44.3549C37.6025 43.9454 37.3253 43.5879 36.9287 43.4858C34.155 42.7719 32.2178 40.2699 32.2178 37.4016C32.2178 33.9375 35.0361 31.1194 38.4999 31.1194C41.9637 31.1194 44.782 33.9375 44.782 37.4016C44.782 40.2699 42.8448 42.7719 40.0711 43.4858C39.6746 43.5879 39.3973 43.9454 39.3973 44.3549V48.171C39.3973 48.6666 39.799 49.0684 40.2947 49.0684Z" fill="#454545"/>
<path d="M15.7646 25.7348C16.2602 25.7348 16.662 25.333 16.662 24.8374C16.662 24.3417 16.2602 23.9399 15.7646 23.9399C15.269 23.9399 14.8672 24.3417 14.8672 24.8374C14.8672 25.333 15.269 25.7348 15.7646 25.7348Z" fill="#454545"/>
<path d="M19.3542 29.3249C19.8498 29.3249 20.2516 28.9231 20.2516 28.4275C20.2516 27.9318 19.8498 27.53 19.3542 27.53C18.8586 27.53 18.4568 27.9318 18.4568 28.4275C18.4568 28.9231 18.8586 29.3249 19.3542 29.3249Z" fill="#454545"/>
<path d="M57.6455 52.6584C58.1411 52.6584 58.5429 52.2566 58.5429 51.7609C58.5429 51.2653 58.1411 50.8635 57.6455 50.8635C57.1498 50.8635 56.748 51.2653 56.748 51.7609C56.748 52.2566 57.1498 52.6584 57.6455 52.6584Z" fill="#454545"/>
<path d="M38.5002 34.7095C38.0045 34.7095 37.6028 35.1113 37.6028 35.6069V39.1967C37.6028 39.6923 38.0045 40.0941 38.5002 40.0941C38.9959 40.0941 39.3976 39.6923 39.3976 39.1967V35.6069C39.3976 35.1113 38.9959 34.7095 38.5002 34.7095Z" fill="#454545"/>
</svg>
