<svg width="40" height="40" viewBox="0 0 40 40" fill="none" xmlns="http://www.w3.org/2000/svg">
    <path d="M17.8517 8.44512C14.8283 8.63262 12.4221 9.1795 10.508 10.117C9.3205 10.6951 8.52362 11.2498 7.6955 12.0701C6.05487 13.6951 5.14081 15.7498 4.76581 18.6951C4.64081 19.6482 4.67206 22.4061 4.81268 23.4686C5.32831 27.4373 7.09393 30.1248 10.2267 31.742C11.8674 32.5936 13.5158 33.0467 16.1721 33.4061C17.4924 33.5857 22.2736 33.617 23.5939 33.4529C26.1564 33.1404 27.9767 32.6717 29.5314 31.9295C30.3596 31.5311 30.883 31.2029 31.6799 30.5857C32.4924 29.9451 33.1721 29.1795 33.8127 28.1639C34.3049 27.3748 34.8596 25.9451 35.1096 24.8045C35.6017 22.5701 35.5861 19.2967 35.0861 17.0623C34.2736 13.4373 31.9611 10.8592 28.3596 9.56231C25.7424 8.62481 21.7658 8.20293 17.8517 8.44512ZM20.7502 10.8279C20.9689 10.9295 21.0783 11.0779 21.3283 11.6092C21.5002 11.9764 21.6408 12.2811 21.6408 12.3045C21.6408 12.3279 21.8439 12.8279 22.1017 13.4139C22.3517 14.0076 22.7424 14.9295 22.9689 15.4686C23.1955 16.0076 23.3986 16.4686 23.4299 16.5076C23.4846 16.5623 25.2346 16.7342 28.6486 16.9998C29.3439 17.0545 29.6642 17.1951 29.8908 17.5389C30.0549 17.7889 30.0705 18.2732 29.9221 18.5467C29.8596 18.6639 28.8205 19.617 27.6017 20.6717C25.7267 22.2967 25.3986 22.6092 25.4299 22.7576C25.5158 23.1248 25.9455 24.9998 26.1017 25.6639C26.1877 26.0467 26.3674 26.8201 26.5002 27.3748C26.7033 28.242 26.7267 28.4139 26.6486 28.6795C26.5236 29.0936 26.1096 29.3982 25.6721 29.3982C25.383 29.3982 25.0392 29.2186 22.7814 27.8592C20.9924 26.7732 20.2033 26.3357 20.133 26.3904C19.8596 26.6092 15.2346 29.3592 15.0705 29.3982C14.7502 29.4764 14.3283 29.3123 14.0627 29.0076C13.8283 28.742 13.8127 28.6951 13.8517 28.2889C13.8752 28.0467 14.0861 27.0232 14.3283 26.0154C14.5705 25.0076 14.8049 24.0232 14.8439 23.8279C14.883 23.6326 14.9689 23.2811 15.0236 23.0389L15.133 22.5936L14.508 22.0623C10.6564 18.742 10.4689 18.5545 10.4689 18.1092C10.4689 17.7889 10.6799 17.3826 10.9221 17.2186C11.1564 17.0623 11.2424 17.0545 15.6955 16.6795C16.4455 16.617 17.0705 16.5467 17.0861 16.5311C17.1017 16.5154 17.3283 15.9998 17.5861 15.3826C19.5314 10.742 19.3908 11.0467 19.7033 10.8592C20.0158 10.6717 20.3908 10.6561 20.7502 10.8279Z" fill="currentColor" />
</svg>