<svg width="197" height="43" viewBox="0 0 197 43" fill="none" xmlns="http://www.w3.org/2000/svg">
    <path d="M37.3446 0.534921C35.2577 0.830812 33.6693 1.68734 32.8595 2.96434C32.2988 3.85202 32.0808 4.8487 32.0808 6.51504C32.0808 10.6419 34.2922 12.4329 39.4002 12.4329C43.2157 12.4329 45.3181 11.4829 46.2836 9.30264C46.9065 7.88548 46.9065 5.02001 46.268 3.58727C45.3803 1.57833 43.4337 0.597213 40.0232 0.457054C39.1199 0.425908 37.9208 0.457054 37.3446 0.534921ZM39.8207 1.65619C39.8986 1.7652 40.1945 2.38813 40.4748 3.04221L40.9887 4.24135L42.328 4.35036C43.7607 4.47495 44.2279 4.6151 44.2279 4.95772C44.2279 5.0823 43.6984 5.65851 43.0599 6.23472C42.4059 6.81093 41.9231 7.30927 41.9698 7.35599C42.0165 7.40271 42.1567 7.30927 42.2813 7.13797C42.4993 6.87322 42.4993 6.88879 42.3124 7.38714C42.1255 7.85433 42.1411 8.05679 42.3124 8.75758C42.5927 9.84771 42.5304 10.4083 42.1255 10.4706C41.9542 10.4862 41.3002 10.1903 40.6772 9.80099C40.0387 9.41166 39.4781 9.10019 39.4158 9.10019C39.3535 9.10019 38.7929 9.41166 38.1699 9.80099C36.3946 10.8911 36.0987 10.751 36.488 8.99118C36.6438 8.32153 36.6749 7.83876 36.5815 7.66746C36.379 7.27813 36.4102 7.16911 36.6749 7.38714C36.8618 7.54287 36.9085 7.54287 36.8929 7.37156C36.8929 7.24698 36.4257 6.76421 35.8807 6.29701C34.1365 4.83313 34.2143 4.53724 36.4413 4.36593L37.874 4.24135L38.0921 3.71186C38.8863 1.81192 39.0888 1.46931 39.3691 1.46931C39.5404 1.46931 39.7428 1.56275 39.8207 1.65619Z" fill="#395CE0" />
    <path d="M137.2 13.0869C135.612 13.2894 133.104 13.85 131.843 14.3017C129.85 15.018 128.292 15.968 127 17.2606C125.676 18.5999 124.882 19.9236 124.29 21.7924C123.589 23.9726 123.449 25.2341 123.542 28.3643C123.605 30.6847 123.683 31.3855 124.025 32.678C124.664 35.1386 125.505 36.6492 127.078 38.2377C129.087 40.2778 131.095 41.2433 134.989 42.0687C136.858 42.458 137.2 42.4892 141.327 42.4892C146.201 42.5048 147.899 42.3179 150.593 41.4613C155.592 39.8729 158.349 36.8984 159.423 31.9305C159.812 30.1396 159.812 25.5767 159.423 23.7546C158.349 18.74 155.701 15.7655 150.936 14.1926C148.148 13.2738 146.856 13.1025 142.028 13.0714C139.676 13.0402 137.496 13.0558 137.2 13.0869ZM145.142 22.3374C147.027 22.8513 148.366 24.0349 148.818 25.5455C149.207 26.8848 149.16 29.0183 148.724 30.1863C147.821 32.569 145.719 33.5657 141.529 33.5657C138.368 33.5657 136.593 32.9895 135.363 31.6035C134.459 30.5757 134.179 29.6257 134.179 27.6323C134.195 25.8414 134.413 25.016 135.129 24.0816C135.643 23.3964 136.749 22.6956 137.823 22.3842C139.443 21.9014 143.476 21.8702 145.142 22.3374Z" fill="#395CE0" />
    <path d="M0 17.8212V22.3374L8.64313 22.3686L17.3018 22.4153L8.64313 27.7725L0 33.1296V37.7082V42.2711H16.274H32.548V37.7549V33.2387H23.8737C18.2674 33.2387 15.2462 33.1919 15.3552 33.0829C15.4331 33.0051 17.2863 31.8371 19.4821 30.4822C21.6623 29.1273 25.4933 26.7602 28.0006 25.2185L32.5324 22.4153L32.548 17.8523V13.305H16.274H0V17.8212Z" fill="#395CE0" />
    <path d="M34.261 27.788V42.2711H39.6337H45.0065V27.788V13.305H39.6337H34.261V27.788Z" fill="#395CE0" />
    <path d="M46.7197 27.788V42.2711H52.0925H57.4652V39.4835V36.7115L59.5365 35.0296C60.6578 34.0952 61.6856 33.2698 61.7946 33.1919C61.9503 33.0674 63.1339 34.1575 66.6223 37.6459L71.2476 42.2711L78.6137 42.24L85.9798 42.1933L77.9129 34.7804C73.4745 30.7002 69.7525 27.243 69.6435 27.1184C69.4722 26.9159 70.5779 25.9504 77.5859 20.2195C82.0709 16.5598 85.7929 13.5074 85.8708 13.4295C85.9642 13.3672 82.6004 13.305 78.3957 13.305L70.7804 13.3205L64.1617 18.9736L57.5431 24.6267L57.4964 18.958L57.4652 13.305H52.0925H46.7197V27.788Z" fill="#395CE0" />
    <path d="M102.005 17.8212V22.3374H106.77H111.535L111.458 25.7947C111.38 29.7035 111.24 30.3888 110.336 31.5723C109.636 32.4756 108.763 33.0051 107.377 33.3165C106.163 33.5968 103.749 33.6436 102.503 33.41C99.9179 32.8961 98.3917 31.292 98.1581 28.8003L98.0647 27.788H92.7075H87.3347L87.4437 29.1429C87.5839 30.8715 88.0511 33.3165 88.4716 34.3755C90.169 38.7049 93.6574 41.2433 99.2794 42.2088C100.058 42.349 102.083 42.4891 103.796 42.5359C108.405 42.6605 111.691 42.1777 114.666 40.9318C117.111 39.904 119.416 37.7705 120.506 35.5435C121.985 32.5067 122.094 31.4945 122.094 21.4342V13.305H112.049H102.005V17.8212Z" fill="#395CE0" />
    <path d="M161.183 27.7881V42.2867L175.479 42.24C188.716 42.1777 189.837 42.1622 190.772 41.8974C194.104 40.963 196.113 38.9229 196.767 35.8083C197.219 33.628 197.032 32.0551 196.035 29.9683C195.506 28.8626 195.163 28.411 194.027 27.2897C192.859 26.1529 192.687 25.9193 192.874 25.7636C193.263 25.4365 194.182 23.8169 194.494 22.9292C194.899 21.7301 194.992 20.7023 194.821 19.363C194.618 17.7278 194.151 16.5753 193.31 15.641C192.422 14.6443 191.613 14.1771 190.055 13.741C188.825 13.3984 188.747 13.3828 175.012 13.3361L161.183 13.2894V27.7881ZM183.779 20.7645C184.76 21.7612 184.138 23.2874 182.658 23.5054C182.284 23.5522 179.699 23.5833 176.912 23.5522L171.85 23.5054L171.804 21.9014L171.757 20.3129H177.534H183.328L183.779 20.7645ZM185.103 31.3855C185.944 31.6035 186.255 32.0084 186.255 32.8961C186.255 33.8305 185.788 34.2665 184.683 34.4067C184.215 34.4534 181.147 34.4846 177.846 34.4534L171.85 34.4067L171.804 33.0207C171.772 32.2576 171.788 31.5412 171.835 31.4166C171.944 31.1519 184.029 31.1207 185.103 31.3855Z" fill="#395CE0" />
</svg>