<svg width="76" height="77" viewBox="0 0 76 77" fill="none" xmlns="http://www.w3.org/2000/svg">
<path d="M62.3752 26.5752C60.1646 26.5752 58.3271 28.2046 58.0008 30.3252H53.6246C53.3321 28.4239 51.8264 26.9183 49.9252 26.6258V18.4996C52.0458 18.1733 53.6752 16.3358 53.6752 14.1252C53.6752 11.6858 51.6896 9.7002 49.2502 9.7002C46.8108 9.7002 44.8252 11.6858 44.8252 14.1252C44.8252 16.3358 46.4546 18.1733 48.5752 18.4996V26.6277C47.3677 26.8133 46.3214 27.4883 45.6427 28.4427L42.2152 26.7289C42.3502 26.3014 42.4252 25.8458 42.4252 25.3752C42.4252 22.9358 40.4396 20.9502 38.0002 20.9502C36.5133 20.9502 35.1952 21.6871 34.3927 22.8158L30.9652 21.1021C31.1002 20.6764 31.1752 20.2208 31.1752 19.7502C31.1752 17.3108 29.1896 15.3252 26.7502 15.3252C24.3108 15.3252 22.3252 17.3108 22.3252 19.7502C22.3252 22.1896 24.3108 24.1752 26.7502 24.1752C28.2371 24.1752 29.5571 23.4364 30.3577 22.3096L33.7871 24.0233C33.6502 24.4489 33.5752 24.9046 33.5752 25.3752C33.5752 25.8458 33.6502 26.3014 33.7871 26.7289L30.3596 28.4427C29.5571 27.3139 28.2371 26.5752 26.7502 26.5752C24.3108 26.5752 22.3252 28.5608 22.3252 31.0002C22.3252 33.2108 23.9546 35.0483 26.0752 35.3746V41.6446C24.1777 41.9389 22.6871 43.4296 22.3927 45.3271H17.9996C17.6733 43.2064 15.8358 41.5771 13.6252 41.5771C11.1858 41.5771 9.2002 43.5627 9.2002 46.0021C9.2002 48.4414 11.1858 50.4252 13.6252 50.4252C15.8358 50.4252 17.6733 48.7958 17.9996 46.6752H22.3946C22.6889 48.5727 24.1796 50.0633 26.0771 50.3577V58.5008C23.9564 58.8271 22.3271 60.6646 22.3271 62.8752C22.3271 65.3164 24.3127 67.3002 26.7521 67.3002C29.1914 67.3002 31.1771 65.3146 31.1771 62.8752C31.1771 60.6646 29.5477 58.8271 27.4271 58.5008V50.3577C28.6308 50.1721 29.6752 49.5083 30.3521 48.5558L33.7889 50.2733C33.6502 50.6989 33.5752 51.1546 33.5752 51.6252C33.5752 54.0664 35.5608 56.0502 38.0002 56.0502C39.4871 56.0502 40.8052 55.3114 41.6096 54.1827L45.0371 55.8983C44.9002 56.3258 44.8252 56.7796 44.8252 57.2502C44.8252 59.6914 46.8108 61.6752 49.2502 61.6752C51.6896 61.6752 53.6752 59.6896 53.6752 57.2502C53.6752 54.8108 51.6896 52.8252 49.2502 52.8252C47.7633 52.8252 46.4452 53.5639 45.6408 54.6927L42.2133 52.9789C42.3502 52.5514 42.4252 52.0958 42.4252 51.6252C42.4252 51.1546 42.3502 50.6989 42.2133 50.2733L45.6408 48.5577C46.4452 49.6883 47.7633 50.4252 49.2502 50.4252C51.6914 50.4252 53.6752 48.4396 53.6752 46.0002C53.6752 43.7896 52.0458 41.9521 49.9252 41.6258V35.3746C51.8264 35.0821 53.3302 33.5764 53.6246 31.6752H58.0008C58.3271 33.7958 60.1646 35.4252 62.3752 35.4252C64.8164 35.4252 66.8002 33.4396 66.8002 31.0002C66.8002 28.5608 64.8164 26.5752 62.3752 26.5752ZM26.7502 22.8252C25.0552 22.8252 23.6752 21.4452 23.6752 19.7502C23.6752 18.0552 25.0552 16.6752 26.7502 16.6752C28.4452 16.6752 29.8252 18.0552 29.8252 19.7502C29.8252 21.4452 28.4452 22.8252 26.7502 22.8252ZM13.6252 49.0752C11.9302 49.0752 10.5502 47.6971 10.5502 46.0002C10.5502 44.3033 11.9302 42.9252 13.6252 42.9252C15.3202 42.9252 16.7002 44.3052 16.7002 46.0002C16.7002 47.6952 15.3202 49.0752 13.6252 49.0752ZM49.2502 54.1752C50.9452 54.1752 52.3252 55.5533 52.3252 57.2502C52.3252 58.9471 50.9471 60.3252 49.2502 60.3252C47.5533 60.3252 46.1752 58.9471 46.1752 57.2502C46.1752 55.5533 47.5552 54.1752 49.2502 54.1752ZM46.1752 14.1252C46.1752 12.4302 47.5533 11.0502 49.2502 11.0502C50.9471 11.0502 52.3252 12.4302 52.3252 14.1252C52.3252 15.8202 50.9452 17.2002 49.2502 17.2002C47.5552 17.2002 46.1752 15.8202 46.1752 14.1252ZM38.0002 22.3002C39.6952 22.3002 41.0752 23.6802 41.0752 25.3752C41.0752 27.0702 39.6971 28.4502 38.0002 28.4502C36.3033 28.4502 34.9252 27.0702 34.9252 25.3752C34.9252 23.6802 36.3052 22.3002 38.0002 22.3002ZM41.0752 38.5002C41.0752 40.1952 39.6971 41.5752 38.0002 41.5752C36.3033 41.5752 34.9252 40.1971 34.9252 38.5002C34.9252 36.8033 36.3052 35.4252 38.0002 35.4252C39.6952 35.4252 41.0752 36.8052 41.0752 38.5002ZM31.1752 31.0002C31.1752 30.5296 31.1002 30.0739 30.9652 29.6483L34.3946 27.9346C35.0733 28.8889 36.1196 29.5639 37.3271 29.7477V34.1258C35.2064 34.4521 33.5771 36.2896 33.5771 38.5002C33.5771 39.1658 33.7252 39.7977 33.9896 40.3658L30.0033 43.0227C29.3396 42.2971 28.4433 41.8002 27.4271 41.6427V35.3727C29.5458 35.0483 31.1752 33.2108 31.1752 31.0002ZM23.6752 31.0002C23.6752 29.3052 25.0552 27.9252 26.7502 27.9252C28.4452 27.9252 29.8252 29.3052 29.8252 31.0002C29.8252 32.6952 28.4452 34.0752 26.7502 34.0752C25.0552 34.0752 23.6752 32.6952 23.6752 31.0002ZM29.8252 62.8752C29.8252 64.5702 28.4452 65.9502 26.7502 65.9502C25.0552 65.9502 23.6752 64.5702 23.6752 62.8752C23.6752 61.1802 25.0552 59.8002 26.7502 59.8002C28.4452 59.8002 29.8252 61.1802 29.8252 62.8752ZM26.7502 49.0752C25.0552 49.0752 23.6752 47.6971 23.6752 46.0002C23.6752 44.3033 25.0552 42.9252 26.7502 42.9252C28.4452 42.9252 29.8252 44.3033 29.8252 46.0002C29.8252 47.6971 28.4452 49.0752 26.7502 49.0752ZM38.0002 54.7002C36.3052 54.7002 34.9252 53.3221 34.9252 51.6252C34.9252 49.9283 36.3052 48.5502 38.0002 48.5502C39.6952 48.5502 41.0752 49.9283 41.0752 51.6252C41.0752 53.3221 39.6952 54.7002 38.0002 54.7002ZM45.0371 47.3521L41.6096 49.0677C40.8052 47.9371 39.4871 47.2002 38.0002 47.2002C36.5133 47.2002 35.1952 47.9389 34.3927 49.0658L30.9446 47.3427C31.0814 46.9171 31.1752 46.4708 31.1752 46.0002C31.1752 45.3346 31.0177 44.7102 30.7533 44.1439L34.7377 41.4871C35.5477 42.3721 36.7102 42.9271 38.0002 42.9271C39.2902 42.9271 40.4546 42.3702 41.2627 41.4871L45.2358 44.1364C44.9714 44.7027 44.8233 45.3364 44.8233 46.0002C44.8252 46.4708 44.9002 46.9264 45.0371 47.3521ZM42.0146 40.3639C42.2789 39.7977 42.4271 39.1658 42.4271 38.5002C42.4271 36.2896 40.7977 34.4521 38.6771 34.1258V29.7477C39.8846 29.5621 40.9327 28.8871 41.6114 27.9327L45.0389 29.6464C44.9002 30.0739 44.8252 30.5296 44.8252 31.0002C44.8252 33.2108 46.4546 35.0483 48.5752 35.3746V41.6258C47.5589 41.7833 46.6552 42.2877 45.9877 43.0133L42.0146 40.3639ZM52.3252 46.0002C52.3252 47.6952 50.9471 49.0752 49.2502 49.0752C47.5533 49.0752 46.1752 47.6971 46.1752 46.0002C46.1752 44.3033 47.5533 42.9252 49.2502 42.9252C50.9471 42.9252 52.3252 44.3052 52.3252 46.0002ZM49.2502 34.0752C47.5552 34.0752 46.1752 32.6952 46.1752 31.0002C46.1752 29.3052 47.5533 27.9252 49.2502 27.9252C50.9471 27.9252 52.3252 29.3052 52.3252 31.0002C52.3252 32.6952 50.9452 34.0752 49.2502 34.0752ZM62.3752 34.0752C60.6802 34.0752 59.3002 32.6952 59.3002 31.0002C59.3002 29.3052 60.6783 27.9252 62.3752 27.9252C64.0721 27.9252 65.4502 29.3052 65.4502 31.0002C65.4502 32.6952 64.0702 34.0752 62.3752 34.0752Z" fill="#454545"/>
</svg>
