<svg xmlns="http://www.w3.org/2000/svg" viewBox="0 0 88 66">
    <title>MetaverseSVG</title>
    <path className="cls-1" d="M50.88,22.46l-5.46,4-5.46-4a.64.64,0,0,0-.9.9l5.71,4.32v4.26a.64.64,0,1,0,1.27,0V27.69l5.74-4.33a.64.64,0,0,0-.9-.9Z" />
    <path className="cls-1" d="M22.52,5.3A7.69,7.69,0,0,0,28,18.43h0a7.72,7.72,0,0,0,7.7-7.7A7.69,7.69,0,0,0,22.52,5.3Zm11.1,5.44A5.67,5.67,0,0,1,28,16.39h0a5.66,5.66,0,1,1,5.66-5.65Z" />
    <path className="cls-1" d="M19.23,30.21H36.69a1,1,0,0,0,1-1c0-.27.17-6.77-3.92-10.51a1,1,0,0,0-1.3-.06c-.05,0-4.57,3.43-8.77,0a1,1,0,0,0-1.31,0,14.56,14.56,0,0,0-4.2,10.5,1.06,1.06,0,0,0,.3.73A1,1,0,0,0,19.23,30.21Zm4-9.41a9.12,9.12,0,0,0,9.78,0c2.07,2.35,2.56,5.74,2.67,7.4H20.3A12.87,12.87,0,0,1,23.19,20.8Z" />
    <path className="cls-1" d="M62.4,18.43h0a7.72,7.72,0,0,0,7.7-7.7,7.7,7.7,0,1,0-7.7,7.7Zm-4-11.69a5.65,5.65,0,1,1,8,8,5.58,5.58,0,0,1-4,1.66h0a5.65,5.65,0,0,1-4-9.65Z" />
    <path className="cls-1" d="M72.15,29.22c0-.27.17-6.77-3.91-10.51a1,1,0,0,0-1.31-.06c-.05,0-4.57,3.43-8.77,0a1,1,0,0,0-1.31,0,14.53,14.53,0,0,0-4.19,10.5,1,1,0,0,0,.29.73,1,1,0,0,0,.72.3H71.13A1,1,0,0,0,72.15,29.22Zm-17.41-1a12.79,12.79,0,0,1,2.9-7.37,9.12,9.12,0,0,0,9.78,0c2.07,2.35,2.55,5.74,2.66,7.4Z" />
    <path className="cls-1" d="M45.42,34.77a7.72,7.72,0,0,0-7.7,7.7,7.71,7.71,0,0,0,7.7,7.69h0a7.7,7.7,0,0,0,0-15.39Zm4,11.69a5.62,5.62,0,0,1-4,1.66h0a5.67,5.67,0,1,1,4-1.66Z" />
    <path className="cls-1" d="M36.69,61.93H54.15a1,1,0,0,0,1-1c0-.28.18-6.77-3.91-10.52a1,1,0,0,0-1.31,0s-4.56,3.43-8.76,0a1,1,0,0,0-1.31,0c-.17.14-4.1,3.64-4.2,10.49a1,1,0,0,0,.29.73A1,1,0,0,0,36.69,61.93Zm4-9.41a9.1,9.1,0,0,0,9.78,0c2.07,2.34,2.56,5.74,2.67,7.4H37.75A12.94,12.94,0,0,1,40.65,52.52Z" />
</svg>