<svg width="77" height="76" viewBox="0 0 77 76" fill="none" xmlns="http://www.w3.org/2000/svg">
<path d="M63.8127 33.3125C64.3288 33.3147 64.8355 33.1747 65.2775 32.9081C65.7193 32.6415 66.0793 32.2583 66.318 31.8007C66.5567 31.3431 66.6649 30.8286 66.6307 30.3136C66.5964 29.7987 66.4212 29.303 66.1241 28.8811C65.827 28.459 65.4195 28.1268 64.9463 27.921C64.4729 27.7151 63.9521 27.6435 63.4408 27.7139C62.9296 27.7842 62.4475 27.9939 62.0474 28.32C61.6474 28.646 61.3448 29.076 61.1727 29.5625H57.3018C56.3391 27.427 55.0221 25.4697 53.4065 23.7735L54.869 22.0625H57.4227C57.6439 22.688 58.0791 23.2153 58.6513 23.5509C59.2236 23.8866 59.896 24.0092 60.5499 23.897C61.2038 23.7848 61.7971 23.445 62.2247 22.9379C62.6523 22.4306 62.8869 21.7885 62.8869 21.125C62.8869 20.4616 62.6523 19.8195 62.2247 19.3122C61.7971 18.805 61.2038 18.4652 60.5499 18.353C59.896 18.2408 59.2236 18.3634 58.6513 18.6991C58.0791 19.0349 57.6439 19.562 57.4227 20.1875H54.4377C54.3023 20.1875 54.1685 20.2169 54.0455 20.2735C53.9225 20.3301 53.8133 20.4127 53.7252 20.5156L52.0443 22.4778C51.538 22.0353 51.013 21.6106 50.4637 21.216C50.3638 21.1393 50.2495 21.0835 50.1277 21.0519C50.0058 21.0204 49.8788 21.0136 49.7543 21.0322C49.6298 21.0508 49.5103 21.0943 49.403 21.16C49.2956 21.2257 49.2025 21.3124 49.1295 21.4149C49.0564 21.5174 49.0046 21.6335 48.9773 21.7564C48.9501 21.8793 48.9478 22.0065 48.9708 22.1303C48.9938 22.2541 49.0414 22.3719 49.1109 22.4769C49.1803 22.5819 49.2702 22.6718 49.3752 22.7413C51.8103 24.4726 53.7958 26.7615 55.166 29.4166C56.536 32.0719 57.251 35.0164 57.251 38.0042C57.251 40.9921 56.536 43.9366 55.166 46.5918C53.7958 49.247 51.8103 51.5358 49.3752 53.2672C49.1725 53.4114 49.0355 53.6302 48.9942 53.8755C48.9529 54.1208 49.0107 54.3724 49.1549 54.575C49.2991 54.7777 49.5179 54.9148 49.7632 54.956C50.0084 54.9974 50.26 54.9395 50.4627 54.7953C51.0177 54.4006 51.5437 53.9741 52.0565 53.5306L53.7252 55.4844C53.8133 55.5873 53.9225 55.6699 54.0455 55.7265C54.1685 55.7832 54.3023 55.8125 54.4377 55.8125H57.4227C57.6439 56.438 58.0791 56.9653 58.6513 57.3009C59.2236 57.6366 59.896 57.7592 60.5499 57.647C61.2038 57.5348 61.7971 57.195 62.2247 56.6879C62.6523 56.1806 62.8869 55.5385 62.8869 54.875C62.8869 54.2115 62.6523 53.5695 62.2247 53.0622C61.7971 52.555 61.2038 52.2152 60.5499 52.103C59.896 51.9908 59.2236 52.1134 58.6513 52.4491C58.0791 52.7849 57.6439 53.312 57.4227 53.9375H54.869L53.4112 52.235C55.0308 50.538 56.3497 48.5774 57.3112 46.4375H61.1727C61.3939 47.063 61.8291 47.5903 62.4013 47.9259C62.9736 48.2616 63.646 48.3842 64.2999 48.272C64.9538 48.1598 65.5471 47.82 65.9747 47.3129C66.4023 46.8056 66.6369 46.1635 66.6369 45.5C66.6369 44.8365 66.4023 44.1945 65.9747 43.6872C65.5471 43.18 64.9538 42.8402 64.2999 42.728C63.646 42.6158 62.9736 42.7384 62.4013 43.0741C61.8291 43.4099 61.3939 43.937 61.1727 44.5625H58.0396C59.489 40.3072 59.487 35.6915 58.034 31.4375H61.1727C61.3659 31.984 61.7232 32.4574 62.1958 32.793C62.6684 33.1287 63.2331 33.3101 63.8127 33.3125ZM60.0627 20.1875C60.2482 20.1875 60.4294 20.2426 60.5836 20.3455C60.7377 20.4485 60.8579 20.595 60.9289 20.7662C60.9999 20.9375 61.0184 21.1261 60.9822 21.3079C60.946 21.4898 60.8568 21.6569 60.7256 21.7879C60.5945 21.9191 60.4275 22.0083 60.2456 22.0445C60.0638 22.0807 59.8752 22.0621 59.7039 21.9912C59.5327 21.9202 59.3862 21.8 59.2832 21.6459C59.1802 21.4917 59.1252 21.3105 59.1252 21.125C59.1252 20.8764 59.2239 20.6379 59.3998 20.4621C59.5756 20.2863 59.8141 20.1875 60.0627 20.1875ZM60.0627 53.9375C60.2482 53.9375 60.4294 53.9925 60.5836 54.0955C60.7377 54.1985 60.8579 54.345 60.9289 54.5162C60.9999 54.6876 61.0184 54.876 60.9822 55.0579C60.946 55.2398 60.8568 55.4069 60.7256 55.5379C60.5945 55.6691 60.4275 55.7583 60.2456 55.7945C60.0638 55.8307 59.8752 55.8121 59.7039 55.7412C59.5327 55.6702 59.3862 55.55 59.2832 55.3959C59.1802 55.2417 59.1252 55.0605 59.1252 54.875C59.1252 54.6264 59.2239 54.3879 59.3998 54.2121C59.5756 54.0363 59.8141 53.9375 60.0627 53.9375ZM63.8127 44.5625C63.9982 44.5625 64.1794 44.6175 64.3336 44.7205C64.4877 44.8235 64.6079 44.97 64.6789 45.1412C64.7499 45.3125 64.7684 45.501 64.7322 45.6829C64.696 45.8648 64.6068 46.0319 64.4756 46.1629C64.3445 46.2941 64.1775 46.3833 63.9956 46.4195C63.8138 46.4557 63.6252 46.4371 63.4539 46.3662C63.2827 46.2952 63.1362 46.175 63.0332 46.0209C62.9302 45.8667 62.8752 45.6855 62.8752 45.5C62.8752 45.2514 62.9739 45.0129 63.1498 44.8371C63.3256 44.6613 63.5641 44.5625 63.8127 44.5625ZM63.8127 29.5625C63.9982 29.5625 64.1794 29.6176 64.3336 29.7205C64.4877 29.8235 64.6079 29.97 64.6789 30.1412C64.7499 30.3125 64.7684 30.5011 64.7322 30.6829C64.696 30.8648 64.6068 31.0319 64.4756 31.1629C64.3445 31.2941 64.1775 31.3833 63.9956 31.4195C63.8138 31.4557 63.6252 31.4371 63.4539 31.3662C63.2827 31.2952 63.1362 31.175 63.0332 31.0209C62.9302 30.8667 62.8752 30.6855 62.8752 30.5C62.8752 30.2514 62.9739 30.0129 63.1498 29.8371C63.3256 29.6613 63.5641 29.5625 63.8127 29.5625Z" fill="#454545"/>
<path d="M63.8124 60.5C63.2328 60.5024 62.6681 60.6838 62.1955 61.0195C61.7229 61.3551 61.3656 61.8285 61.1724 62.375H49.2812L45.5312 57.3856C46.0459 57.1981 46.5568 56.9975 47.0602 56.7687C47.2809 56.6623 47.4512 56.4737 47.5345 56.2434C47.6179 56.0129 47.6077 55.7592 47.5063 55.5361C47.4049 55.3131 47.2202 55.1387 46.9917 55.0502C46.7632 54.9616 46.5092 54.9661 46.284 55.0625C43.7364 56.2232 40.9612 56.7988 38.1621 56.7468C35.3631 56.6948 32.6111 56.0167 30.1084 54.7623C27.6056 53.5078 25.4155 51.7089 23.6989 49.4974C21.9822 47.2859 20.7825 44.7181 20.1879 41.9824C19.5933 39.2468 19.6189 36.4126 20.2626 33.6882C20.9064 30.9636 22.1522 28.4178 23.9084 26.2377C25.6646 24.0575 27.8868 22.2983 30.4117 21.0891C32.9367 19.8799 35.7004 19.2515 38.4999 19.25C41.1843 19.2464 43.8371 19.8281 46.2737 20.9544C46.3856 21.0058 46.5065 21.0347 46.6296 21.0395C46.7527 21.0442 46.8756 21.0246 46.9911 20.9818C47.1066 20.9391 47.2126 20.874 47.303 20.7903C47.3932 20.7067 47.4663 20.606 47.5177 20.4941C47.5692 20.3821 47.5981 20.2612 47.6029 20.1381C47.6076 20.015 47.588 19.8922 47.5452 19.7767C47.5025 19.6612 47.4374 19.5553 47.3537 19.4649C47.2701 19.3745 47.1694 19.3015 47.0574 19.25C46.553 19.0175 46.0402 18.8141 45.5246 18.6247L49.2812 13.625H61.1724C61.3936 14.2505 61.8288 14.7777 62.401 15.1134C62.9733 15.4491 63.6457 15.5717 64.2996 15.4595C64.9535 15.3473 65.5468 15.0076 65.9744 14.5003C66.4021 13.9931 66.6366 13.351 66.6366 12.6875C66.6366 12.024 66.4021 11.3819 65.9744 10.8747C65.5468 10.3674 64.9535 10.0277 64.2996 9.91551C63.6457 9.80332 62.9733 9.92591 62.401 10.2616C61.8288 10.5973 61.3936 11.1245 61.1724 11.75H48.8124C48.6669 11.75 48.5234 11.7839 48.3932 11.849C48.263 11.9141 48.1498 12.0086 48.0624 12.125L43.6262 18.0312C41.9523 17.5957 40.2296 17.3751 38.4999 17.375C36.7686 17.374 35.044 17.5914 33.3671 18.0219L28.9374 12.125C28.8501 12.0086 28.7369 11.9141 28.6067 11.849C28.4766 11.7839 28.333 11.75 28.1874 11.75H15.8274C15.6063 11.1245 15.1711 10.5973 14.5989 10.2616C14.0266 9.92591 13.3541 9.80332 12.7002 9.91551C12.0463 10.0277 11.4531 10.3674 11.0255 10.8747C10.5978 11.3819 10.3633 12.024 10.3633 12.6875C10.3633 13.351 10.5978 13.9931 11.0255 14.5003C11.4531 15.0076 12.0463 15.3473 12.7002 15.4595C13.3541 15.5717 14.0266 15.4491 14.5989 15.1134C15.1711 14.7777 15.6063 14.2505 15.8274 13.625H27.7187L31.4687 18.6116C29.0776 19.4852 26.8685 20.7935 24.953 22.4703L23.274 20.5156C23.186 20.4129 23.0769 20.3303 22.9541 20.2737C22.8313 20.217 22.6977 20.1876 22.5624 20.1875H19.5774C19.3563 19.562 18.9211 19.0348 18.3488 18.6991C17.7766 18.3634 17.1041 18.2408 16.4502 18.353C15.7963 18.4652 15.2031 18.805 14.7755 19.3122C14.3478 19.8194 14.1133 20.4615 14.1133 21.125C14.1133 21.7885 14.3478 22.4306 14.7755 22.9378C15.2031 23.445 15.7963 23.7848 16.4502 23.897C17.1041 24.0092 17.7766 23.8866 18.3488 23.5509C18.9211 23.2153 19.3563 22.688 19.5774 22.0625H22.1312L23.5937 23.7687C21.9726 25.4647 20.6515 27.4238 19.6871 29.5625H15.8274C15.6063 28.937 15.1711 28.4098 14.5989 28.0741C14.0266 27.7384 13.3541 27.6158 12.7002 27.728C12.0463 27.8402 11.4531 28.18 11.0255 28.6872C10.5978 29.1944 10.3633 29.8365 10.3633 30.5C10.3633 31.1635 10.5978 31.8056 11.0255 32.3128C11.4531 32.82 12.0463 33.1598 12.7002 33.272C13.3541 33.3842 14.0266 33.2616 14.5989 32.9259C15.1711 32.5903 15.6063 32.063 15.8274 31.4375H18.9512C17.5162 35.6949 17.5162 40.3052 18.9512 44.5625H15.8274C15.6063 43.937 15.1711 43.4098 14.5989 43.0741C14.0266 42.7384 13.3541 42.6158 12.7002 42.728C12.0463 42.8402 11.4531 43.18 11.0255 43.6872C10.5978 44.1944 10.3633 44.8365 10.3633 45.5C10.3633 46.1635 10.5978 46.8056 11.0255 47.3128C11.4531 47.82 12.0463 48.1598 12.7002 48.272C13.3541 48.3842 14.0266 48.2616 14.5989 47.9259C15.1711 47.5903 15.6063 47.063 15.8274 46.4375H19.6871C20.6515 48.5762 21.9726 50.5354 23.5937 52.2313L22.1312 53.9375H19.5774C19.3563 53.312 18.9211 52.7848 18.3488 52.4491C17.7766 52.1134 17.1041 51.9908 16.4502 52.103C15.7963 52.2152 15.2031 52.555 14.7755 53.0622C14.3478 53.5694 14.1133 54.2115 14.1133 54.875C14.1133 55.5385 14.3478 56.1806 14.7755 56.6878C15.2031 57.195 15.7963 57.5348 16.4502 57.647C17.1041 57.7592 17.7766 57.6366 18.3488 57.3009C18.9211 56.9653 19.3563 56.438 19.5774 55.8125H22.5624C22.6977 55.8124 22.8313 55.783 22.9541 55.7263C23.0769 55.6697 23.186 55.5871 23.274 55.4844L24.9493 53.5297C26.8648 55.2065 29.0738 56.5148 31.4649 57.3884L27.7187 62.375H15.8274C15.6063 61.7495 15.1711 61.2223 14.5989 60.8866C14.0266 60.5509 13.3541 60.4283 12.7002 60.5405C12.0463 60.6527 11.4531 60.9925 11.0255 61.4997C10.5978 62.0069 10.3633 62.649 10.3633 63.3125C10.3633 63.976 10.5978 64.6181 11.0255 65.1253C11.4531 65.6325 12.0463 65.9723 12.7002 66.0845C13.3541 66.1967 14.0266 66.0741 14.5989 65.7384C15.1711 65.4028 15.6063 64.8755 15.8274 64.25H28.1874C28.333 64.25 28.4766 64.2162 28.6067 64.151C28.7369 64.0859 28.8501 63.9914 28.9374 63.875L33.3671 57.9772C36.7338 58.8416 40.2642 58.8416 43.6309 57.9772L48.0624 63.875C48.1498 63.9914 48.263 64.0859 48.3932 64.151C48.5234 64.2162 48.6669 64.25 48.8124 64.25H61.1724C61.3451 64.7349 61.6478 65.1629 62.0473 65.4874C62.4469 65.8119 62.9279 66.0203 63.4379 66.0898C63.9478 66.1594 64.4671 66.0875 64.9389 65.8819C65.4109 65.6763 65.8171 65.345 66.1133 64.9242C66.4097 64.5033 66.5845 64.0091 66.619 63.4955C66.6534 62.982 66.546 62.4688 66.3085 62.0123C66.071 61.5556 65.7126 61.173 65.2724 60.9063C64.8321 60.6397 64.3271 60.4991 63.8124 60.5ZM63.8124 11.75C63.9979 11.75 64.1791 11.805 64.3333 11.908C64.4874 12.011 64.6076 12.1574 64.6786 12.3287C64.7495 12.5 64.7681 12.6885 64.7319 12.8704C64.6957 13.0523 64.6065 13.2193 64.4753 13.3504C64.3443 13.4815 64.1772 13.5708 63.9953 13.607C63.8135 13.6432 63.625 13.6246 63.4536 13.5536C63.2824 13.4827 63.1359 13.3625 63.0329 13.2084C62.93 13.0542 62.8749 12.8729 62.8749 12.6875C62.8749 12.4389 62.9737 12.2004 63.1495 12.0246C63.3253 11.8488 63.5638 11.75 63.8124 11.75ZM13.1874 13.625C13.002 13.625 12.8208 13.57 12.6666 13.467C12.5124 13.364 12.3922 13.2176 12.3213 13.0463C12.2503 12.875 12.2318 12.6865 12.2679 12.5046C12.3041 12.3227 12.3934 12.1557 12.5245 12.0246C12.6556 11.8935 12.8227 11.8042 13.0045 11.768C13.1864 11.7318 13.3749 11.7504 13.5462 11.8214C13.7175 11.8923 13.8639 12.0125 13.9669 12.1667C14.07 12.3208 14.1249 12.5021 14.1249 12.6875C14.1249 12.9361 14.0262 13.1746 13.8503 13.3504C13.6745 13.5262 13.4361 13.625 13.1874 13.625ZM16.9374 22.0625C16.752 22.0625 16.5708 22.0076 16.4166 21.9045C16.2624 21.8015 16.1422 21.6551 16.0713 21.4838C16.0003 21.3125 15.9818 21.124 16.0179 20.9421C16.0541 20.7602 16.1434 20.5933 16.2745 20.4621C16.4056 20.3309 16.5727 20.2417 16.7545 20.2055C16.9364 20.1693 17.1249 20.1879 17.2962 20.2588C17.4675 20.3298 17.6139 20.45 17.7169 20.6041C17.82 20.7583 17.8749 20.9396 17.8749 21.125C17.8749 21.3736 17.7762 21.6121 17.6003 21.7879C17.4245 21.9637 17.1861 22.0625 16.9374 22.0625ZM13.1874 31.4375C13.002 31.4375 12.8208 31.3826 12.6666 31.2795C12.5124 31.1765 12.3922 31.0301 12.3213 30.8588C12.2503 30.6875 12.2318 30.499 12.2679 30.3171C12.3041 30.1352 12.3934 29.9683 12.5245 29.8371C12.6556 29.7059 12.8227 29.6167 13.0045 29.5805C13.1864 29.5443 13.3749 29.5629 13.5462 29.6338C13.7175 29.7048 13.8639 29.825 13.9669 29.9791C14.07 30.1333 14.1249 30.3146 14.1249 30.5C14.1249 30.7486 14.0262 30.9871 13.8503 31.1629C13.6745 31.3387 13.4361 31.4375 13.1874 31.4375ZM13.1874 46.4375C13.002 46.4375 12.8208 46.3826 12.6666 46.2795C12.5124 46.1765 12.3922 46.0301 12.3213 45.8588C12.2503 45.6875 12.2318 45.499 12.2679 45.3171C12.3041 45.1352 12.3934 44.9683 12.5245 44.8371C12.6556 44.7059 12.8227 44.6167 13.0045 44.5805C13.1864 44.5443 13.3749 44.5629 13.5462 44.6338C13.7175 44.7048 13.8639 44.825 13.9669 44.9791C14.07 45.1333 14.1249 45.3146 14.1249 45.5C14.1249 45.7486 14.0262 45.9871 13.8503 46.1629C13.6745 46.3388 13.4361 46.4375 13.1874 46.4375ZM16.9374 55.8125C16.752 55.8125 16.5708 55.7576 16.4166 55.6545C16.2624 55.5515 16.1422 55.4051 16.0713 55.2338C16.0003 55.0625 15.9818 54.874 16.0179 54.6921C16.0541 54.5102 16.1434 54.3433 16.2745 54.2121C16.4056 54.0809 16.5727 53.9917 16.7545 53.9555C16.9364 53.9193 17.1249 53.9379 17.2962 54.0088C17.4675 54.0798 17.6139 54.2 17.7169 54.3541C17.82 54.5083 17.8749 54.6896 17.8749 54.875C17.8749 55.1236 17.7762 55.3621 17.6003 55.5379C17.4245 55.7138 17.1861 55.8125 16.9374 55.8125ZM13.1874 64.25C13.002 64.25 12.8208 64.1951 12.6666 64.092C12.5124 63.989 12.3922 63.8426 12.3213 63.6713C12.2503 63.5 12.2318 63.3115 12.2679 63.1296C12.3041 62.9477 12.3934 62.7808 12.5245 62.6496C12.6556 62.5184 12.8227 62.4292 13.0045 62.393C13.1864 62.3568 13.3749 62.3754 13.5462 62.4463C13.7175 62.5173 13.8639 62.6375 13.9669 62.7916C14.07 62.9458 14.1249 63.1271 14.1249 63.3125C14.1249 63.5611 14.0262 63.7996 13.8503 63.9754C13.6745 64.1513 13.4361 64.25 13.1874 64.25ZM63.8124 64.25C63.627 64.25 63.4458 64.1951 63.2915 64.092C63.1374 63.989 63.0172 63.8426 62.9463 63.6713C62.8753 63.5 62.8567 63.3115 62.8929 63.1296C62.9291 62.9477 63.0184 62.7808 63.1495 62.6496C63.2807 62.5184 63.4476 62.4292 63.6295 62.393C63.8114 62.3568 63.9999 62.3754 64.1712 62.4463C64.3425 62.5173 64.4889 62.6375 64.592 62.7916C64.695 62.9458 64.7499 63.1271 64.7499 63.3125C64.7499 63.5611 64.6512 63.7996 64.4753 63.9754C64.2995 64.1513 64.0611 64.25 63.8124 64.25Z" fill="#454545"/>
<path d="M26.3125 38.9375C26.8303 38.9375 27.25 38.5178 27.25 38C27.25 37.4822 26.8303 37.0625 26.3125 37.0625C25.7947 37.0625 25.375 37.4822 25.375 38C25.375 38.5178 25.7947 38.9375 26.3125 38.9375Z" fill="#454545"/>
<path d="M50.6875 38.9375C51.2053 38.9375 51.625 38.5178 51.625 38C51.625 37.4822 51.2053 37.0625 50.6875 37.0625C50.1697 37.0625 49.75 37.4822 49.75 38C49.75 38.5178 50.1697 38.9375 50.6875 38.9375Z" fill="#454545"/>
<path d="M27.9063 49.9278C27.7537 50.1228 27.6843 50.3702 27.7135 50.6161C27.7426 50.862 27.8679 51.0865 28.0619 51.2403C31.0277 53.6019 34.7089 54.8837 38.5001 54.875C41.8376 54.875 45.1002 53.8853 47.8753 52.0311C50.6503 50.1768 52.8133 47.5413 54.0905 44.4578C55.3677 41.3743 55.702 37.9813 55.0508 34.7079C54.3997 31.4344 52.7925 28.4276 50.4325 26.0676C48.0725 23.7075 45.0656 22.1004 41.7922 21.4493C38.5188 20.7981 35.1258 21.1323 32.0423 22.4096C28.9587 23.6868 26.3232 25.8497 24.469 28.6247C22.6148 31.3998 21.6251 34.6624 21.6251 38C21.6155 41.7904 22.8959 45.4712 25.256 48.4372C25.3322 48.5338 25.4268 48.6145 25.5342 48.6747C25.6417 48.7348 25.7599 48.7731 25.8822 48.7874C26.0045 48.8019 26.1284 48.792 26.2468 48.7586C26.3653 48.7251 26.4761 48.6687 26.5727 48.5924C26.6694 48.5161 26.75 48.4215 26.8101 48.3141C26.8703 48.2067 26.9086 48.0884 26.923 47.9661C26.9374 47.8439 26.9276 47.7199 26.8941 47.6015C26.8606 47.483 26.8042 47.3723 26.7279 47.2756C24.6299 44.6399 23.4915 41.3687 23.5001 38C23.5001 35.0333 24.3798 32.1332 26.028 29.6665C27.6762 27.1997 30.0189 25.2771 32.7598 24.1418C35.5007 23.0065 38.5166 22.7095 41.4264 23.2882C44.3361 23.867 47.0089 25.2957 49.1066 27.3934C51.2044 29.4912 52.6331 32.164 53.2119 35.0737C53.7906 37.9834 53.4936 40.9993 52.3583 43.7402C51.223 46.4812 49.3003 48.8238 46.8336 50.472C44.3668 52.1203 41.4668 53 38.5001 53C35.1313 53.0085 31.8601 51.8701 29.2244 49.7722C29.1277 49.6957 29.0169 49.6391 28.8983 49.6055C28.7796 49.5719 28.6556 49.5621 28.5331 49.5766C28.4107 49.5911 28.2923 49.6295 28.1847 49.6898C28.0771 49.7501 27.9825 49.831 27.9063 49.9278Z" fill="#454545"/>
<path d="M29.8469 33.3378C29.6414 33.3863 29.4584 33.5029 29.3273 33.6684C29.1963 33.8339 29.125 34.0388 29.125 34.2499V41.75C29.125 41.9986 29.2238 42.2371 29.3996 42.4129C29.5754 42.5887 29.8139 42.6875 30.0625 42.6875C30.3111 42.6875 30.5496 42.5887 30.7254 42.4129C30.9012 42.2371 31 41.9986 31 41.75V38.2212L32.9734 42.169C33.0677 42.3582 33.2232 42.51 33.4145 42.5997C33.606 42.6894 33.822 42.7118 34.0278 42.6633C34.2334 42.6148 34.4167 42.4982 34.5479 42.3323C34.6789 42.1666 34.7502 41.9614 34.75 41.75V34.2499C34.75 34.0013 34.6512 33.7628 34.4754 33.587C34.2996 33.4113 34.0611 33.3124 33.8125 33.3124C33.5639 33.3124 33.3254 33.4113 33.1496 33.587C32.9738 33.7628 32.875 34.0013 32.875 34.2499V37.7787L30.9062 33.8309C30.8116 33.6409 30.6552 33.4887 30.4628 33.3991C30.2703 33.3095 30.0532 33.2879 29.8469 33.3378Z" fill="#454545"/>
<path d="M41.3125 35.1875C41.5611 35.1875 41.7996 35.0887 41.9754 34.9129C42.1512 34.7371 42.25 34.4986 42.25 34.25C42.25 34.0014 42.1512 33.7629 41.9754 33.5871C41.7996 33.4113 41.5611 33.3125 41.3125 33.3125H37.5625C37.3139 33.3125 37.0754 33.4113 36.8996 33.5871C36.7238 33.7629 36.625 34.0014 36.625 34.25V41.75C36.625 41.9986 36.7238 42.2371 36.8996 42.4129C37.0754 42.5887 37.3139 42.6875 37.5625 42.6875C37.8111 42.6875 38.0496 42.5887 38.2254 42.4129C38.4012 42.2371 38.5 41.9986 38.5 41.75V38.9375H40.375C40.6236 38.9375 40.8621 38.8387 41.0379 38.6629C41.2137 38.4871 41.3125 38.2486 41.3125 38C41.3125 37.7514 41.2137 37.5129 41.0379 37.3371C40.8621 37.1613 40.6236 37.0625 40.375 37.0625H38.5V35.1875H41.3125Z" fill="#454545"/>
<path d="M48.8125 33.3125H45.0625C44.8139 33.3125 44.5754 33.4113 44.3996 33.5871C44.2238 33.7629 44.125 34.0014 44.125 34.25C44.125 34.4986 44.2238 34.7371 44.3996 34.9129C44.5754 35.0887 44.8139 35.1875 45.0625 35.1875H46V41.75C46 41.9986 46.0988 42.2371 46.2746 42.4129C46.4504 42.5887 46.6889 42.6875 46.9375 42.6875C47.1861 42.6875 47.4246 42.5887 47.6004 42.4129C47.7762 42.2371 47.875 41.9986 47.875 41.75V35.1875H48.8125C49.0611 35.1875 49.2996 35.0887 49.4754 34.9129C49.6512 34.7371 49.75 34.4986 49.75 34.25C49.75 34.0014 49.6512 33.7629 49.4754 33.5871C49.2996 33.4113 49.0611 33.3125 48.8125 33.3125Z" fill="#454545"/>
<path d="M39.0205 25.9701C38.8664 25.8673 38.6853 25.8125 38.5001 25.8125C38.315 25.8125 38.1339 25.8673 37.9798 25.9701L32.3548 29.7201C32.2524 29.7884 32.1644 29.8763 32.096 29.9786C32.0275 30.0809 31.9798 30.1958 31.9556 30.3165C31.9315 30.4373 31.9315 30.5616 31.9554 30.6823C31.9794 30.8031 32.0268 30.918 32.0951 31.0204C32.1635 31.1229 32.2513 31.2108 32.3536 31.2793C32.456 31.3478 32.5707 31.3955 32.6915 31.4196C32.8122 31.4437 32.9365 31.4438 33.0574 31.4199C33.1781 31.396 33.293 31.3484 33.3955 31.2801L38.5001 27.8751L43.6048 31.2782C43.7073 31.3466 43.8221 31.3941 43.9429 31.418C44.0637 31.4419 44.188 31.4418 44.3088 31.4177C44.4295 31.3936 44.5443 31.3459 44.6467 31.2775C44.749 31.2089 44.8368 31.121 44.9051 31.0185C44.9735 30.9162 45.0209 30.8012 45.0449 30.6805C45.0688 30.5597 45.0687 30.4354 45.0446 30.3147C45.0205 30.1939 44.9728 30.0791 44.9043 29.9767C44.8359 29.8744 44.7479 29.7866 44.6455 29.7182L39.0205 25.9701Z" fill="#454545"/>
<path d="M32.0951 44.9798C32.0268 45.0823 31.9793 45.1971 31.9554 45.3179C31.9315 45.4387 31.9315 45.563 31.9556 45.6838C31.9797 45.8045 32.0274 45.9194 32.0959 46.0217C32.1644 46.124 32.2524 46.2118 32.3548 46.2801L37.9798 50.0301C38.1339 50.1329 38.3149 50.1878 38.5001 50.1878C38.6853 50.1878 38.8664 50.1329 39.0205 50.0301L44.6455 46.2801C44.8524 46.1421 44.9959 45.9276 45.0445 45.6838C45.0933 45.4399 45.0431 45.1867 44.9051 44.9798C44.7671 44.7729 44.5526 44.6294 44.3088 44.5806C44.0649 44.532 43.8117 44.5821 43.6048 44.7201L38.5001 48.1251L33.3955 44.722C33.1888 44.5838 32.9357 44.5333 32.6919 44.5817C32.448 44.63 32.2334 44.7732 32.0951 44.9798Z" fill="#454545"/>
</svg>
