<svg xmlns="http://www.w3.org/2000/svg" viewBox="0 0 88 66">
    <title>NFTSVG</title>
    <path className="cls-1" d="M29.55,15.71l0,0a2.06,2.06,0,0,1-.34-3.34l.09-.08a2,2,0,0,1,3.18,2.46l0,.11A2.05,2.05,0,0,1,29.55,15.71Z" />
    <path className="cls-1" d="M46,6.25l0,0a1.66,1.66,0,0,1-.28-2.69l.08-.07a1.66,1.66,0,0,1,2.57,2l-.05.08A1.65,1.65,0,0,1,46,6.25Z" />
    <path className="cls-1" d="M33,49.08l0,.08a1.78,1.78,0,0,1-2.62,2.28l-.15-.12a1.77,1.77,0,0,1,.31-2.94l0,0A1.77,1.77,0,0,1,33,49.08Z" />
    <path className="cls-1" d="M61.62,48l0,0A2,2,0,0,1,62,51.25l-.1.08A2,2,0,0,1,59,48.86l0-.09A1.94,1.94,0,0,1,61.62,48Z" />
    <path className="cls-1" d="M59.6,15.15,59.55,15A2.23,2.23,0,0,1,63,12.4l.1.09a2.24,2.24,0,0,1-.47,3.66l-.05,0A2.22,2.22,0,0,1,59.6,15.15Z" />
    <path className="cls-1" d="M43.56,60l-.05-.1a1.8,1.8,0,0,1,2.82-2.12l.09.07a1.82,1.82,0,0,1-.38,3l0,0A1.79,1.79,0,0,1,43.56,60Z" />
    <path className="cls-1" d="M42.93,37.69H40.45L36.31,31.4v6.29H33.83V27.45h2.48l4.14,6.34V27.45h2.48Z" />
    <path className="cls-1" d="M51.31,27.45v2h-4.2v2.23h3.25v1.89H47.11v4.14H44.64V27.45Z" />
    <path className="cls-1" d="M59.94,27.45v2H57.16V37.7H54.67V29.43H51.92v-2Z" />
    <path className="cls-1" d="M46.1,55.18A23.79,23.79,0,1,1,69.89,31.39,23.81,23.81,0,0,1,46.1,55.18Zm0-46.75a23,23,0,1,0,23,23A23,23,0,0,0,46.1,8.43Z" />
    <path className="cls-1" d="M46.1,60A27.52,27.52,0,0,1,18.61,32.53h1A26.54,26.54,0,0,0,46.1,59.05Z" />
    <path className="cls-1" d="M74.36,31.76h-1A26.55,26.55,0,0,0,46.87,5.24v-1A27.53,27.53,0,0,1,74.36,31.76Z" />
</svg>