<svg xmlns="http://www.w3.org/2000/svg" xmlns:xlink="http://www.w3.org/1999/xlink" viewBox="0 0 240.65 172.57">
    <defs>
        <style>.cls-1{fill:none;stroke:#39d8de;stroke-miterlimit:10;}.cls-2{fill:url(#linear-gradient);}.cls-3{fill:#fff;}</style>
        <linearGradient id="linear-gradient" x1="113.32" y1="0.73" x2="128.97" y2="139.51" gradientUnits="userSpaceOnUse">
            <stop offset="0.01" stop-color="#627cff" />
            <stop offset="1" stop-color="#274ee1" />
        </linearGradient>
    </defs>
    <title>Partner comingsoon</title>
    <path class="cls-1" d="M226.09,164,37.22,147.33a9.15,9.15,0,0,1-9.13-9.13L9.31,24.39a9.16,9.16,0,0,1,9.13-9.13L207.57,30.2a9.16,9.16,0,0,1,9.13,9.13L235.22,154.9A9.16,9.16,0,0,1,226.09,164Z" />
    <path class="cls-2" d="M18.44,153.78l188.87-6.45a9.15,9.15,0,0,0,9.13-9.13L235.22,16.64a9.16,9.16,0,0,0-9.13-9.13L37,30.2a9.16,9.16,0,0,0-9.13,9.13L9.6,143A9.22,9.22,0,0,0,12,151.1,9.09,9.09,0,0,0,18.44,153.78Z" />
    <path class="cls-3" d="M72.85,61.1a10.86,10.86,0,0,1,3.51.53,8.94,8.94,0,0,1,2.78,1.49,8.47,8.47,0,0,1,2,2.33,10.13,10.13,0,0,1,1.16,3H77.24a4.91,4.91,0,0,0-1.69-2.14,4.75,4.75,0,0,0-2.79-.79A4.2,4.2,0,0,0,69.38,67a6.18,6.18,0,0,0-1.29,4.14,7.3,7.3,0,0,0,.34,2.32,5.32,5.32,0,0,0,.95,1.78,4.1,4.1,0,0,0,1.48,1.13,4.58,4.58,0,0,0,1.9.39A4.82,4.82,0,0,0,75.55,76a4.71,4.71,0,0,0,1.69-2.13H82.3a10.19,10.19,0,0,1-1.16,3,8.43,8.43,0,0,1-2,2.32,9,9,0,0,1-2.78,1.5,11.14,11.14,0,0,1-3.51.53,10.32,10.32,0,0,1-4-.74,8.69,8.69,0,0,1-3-2.09,9.14,9.14,0,0,1-1.93-3.18,12.64,12.64,0,0,1,0-8.12,9.28,9.28,0,0,1,1.93-3.19,8.67,8.67,0,0,1,3-2.08A10.14,10.14,0,0,1,72.85,61.1Z" />
    <path class="cls-3" d="M92.29,65.27a9.34,9.34,0,0,1,3.22.54,7.22,7.22,0,0,1,2.56,1.58,7.45,7.45,0,0,1,1.69,2.52,8.71,8.71,0,0,1,.62,3.36,8.62,8.62,0,0,1-.62,3.35,7.45,7.45,0,0,1-1.69,2.52,7.22,7.22,0,0,1-2.56,1.58,9.7,9.7,0,0,1-6.44,0,7.35,7.35,0,0,1-2.57-1.58,7.21,7.21,0,0,1-1.71-2.52,9.53,9.53,0,0,1,0-6.71,7.21,7.21,0,0,1,1.71-2.52,7.35,7.35,0,0,1,2.57-1.58A9.34,9.34,0,0,1,92.29,65.27Zm0,4.14a3.39,3.39,0,0,0-1.23.22,2.77,2.77,0,0,0-1,.7,3.55,3.55,0,0,0-.71,1.19A5,5,0,0,0,89,73.25,4.89,4.89,0,0,0,89.31,75,3.6,3.6,0,0,0,90,76.15a2.77,2.77,0,0,0,1,.7,3.39,3.39,0,0,0,1.23.22,3.34,3.34,0,0,0,1.22-.22,2.78,2.78,0,0,0,1-.7A3.44,3.44,0,0,0,95.24,75a4.89,4.89,0,0,0,.27-1.72,5,5,0,0,0-.27-1.73,3.39,3.39,0,0,0-.71-1.19,2.78,2.78,0,0,0-1-.7A3.34,3.34,0,0,0,92.29,69.41Z" />
    <path class="cls-3" d="M123.09,65.29a5.89,5.89,0,0,1,4.53,1.77,7,7,0,0,1,1.66,5v9.06h-4.76v-8.5a3.13,3.13,0,0,0-.81-2.32,2.89,2.89,0,0,0-2.16-.82,3,3,0,0,0-2.23.86,3.42,3.42,0,0,0-.84,2.5v8.28h-4.79v-8.5a3.17,3.17,0,0,0-.79-2.32,2.86,2.86,0,0,0-2.15-.82,3,3,0,0,0-2.26.86,3.42,3.42,0,0,0-.84,2.5v8.28h-4.78V65.46h4.78v2.66a4.86,4.86,0,0,1,1.86-2.06,5.63,5.63,0,0,1,3-.77,5.91,5.91,0,0,1,3.14.83,5.41,5.41,0,0,1,2.09,2.36,6.27,6.27,0,0,1,2.18-2.31A5.87,5.87,0,0,1,123.09,65.29Z" />
    <path class="cls-3" d="M132,61.07a2.33,2.33,0,0,1,.77-1.79,2.87,2.87,0,0,1,2.08-.73,2.91,2.91,0,0,1,2.09.73,2.48,2.48,0,0,1,0,3.57,3,3,0,0,1-2.09.71,3,3,0,0,1-2.08-.71A2.31,2.31,0,0,1,132,61.07Zm5.23,4.39V81.07h-4.79V65.46Z" />
    <path class="cls-3" d="M150.45,65.29a5.44,5.44,0,0,1,4.27,1.77,7.16,7.16,0,0,1,1.58,5v9.06h-4.78v-8.5a3.4,3.4,0,0,0-.83-2.46,2.88,2.88,0,0,0-2.19-.87,3.07,3.07,0,0,0-2.3.89,3.69,3.69,0,0,0-.87,2.66v8.28h-4.78V65.46h4.78v2.85a5.18,5.18,0,0,1,2-2.19A5.84,5.84,0,0,1,150.45,65.29Z" />
    <path class="cls-3" d="M165.39,65.27a5.54,5.54,0,0,1,3.12.83,4.93,4.93,0,0,1,1.86,2.19V65.46h4.76V81a9.41,9.41,0,0,1-.46,3,6.87,6.87,0,0,1-1.42,2.46,6.57,6.57,0,0,1-2.4,1.68A10.13,10.13,0,0,1,161.73,87a6.76,6.76,0,0,1-2.49-4.5H164A2.38,2.38,0,0,0,165,84a3.75,3.75,0,0,0,2.1.53,4.38,4.38,0,0,0,1.27-.18,2.49,2.49,0,0,0,1-.6,2.88,2.88,0,0,0,.72-1.09,4.86,4.86,0,0,0,.26-1.68V78.25a5,5,0,0,1-1.86,2.18,5.55,5.55,0,0,1-3.12.84,6.48,6.48,0,0,1-2.67-.55,5.94,5.94,0,0,1-2.14-1.58,7.51,7.51,0,0,1-1.41-2.52,9.94,9.94,0,0,1-.52-3.35,10.14,10.14,0,0,1,.52-3.39,7.31,7.31,0,0,1,1.41-2.5,6,6,0,0,1,2.14-1.57A6.64,6.64,0,0,1,165.39,65.27Zm1.54,4.19a3.28,3.28,0,0,0-2.46,1,4.68,4.68,0,0,0,0,5.65,3.54,3.54,0,0,0,4.92,0,4.5,4.5,0,0,0,0-5.61A3.31,3.31,0,0,0,166.93,69.46Z" />
    <path class="cls-3" d="M102.36,109.08a5.66,5.66,0,0,1-.43,2.19,5.28,5.28,0,0,1-1.3,1.85,6.3,6.3,0,0,1-2.17,1.26,8.94,8.94,0,0,1-3,.46,10.73,10.73,0,0,1-3-.41A7.48,7.48,0,0,1,90,113.25a6.16,6.16,0,0,1-1.66-1.93,6.39,6.39,0,0,1-.74-2.63h5.09a2.62,2.62,0,0,0,.8,1.77,2.46,2.46,0,0,0,1.74.63,2,2,0,0,0,1.47-.52,1.93,1.93,0,0,0-.19-2.81,7.47,7.47,0,0,0-1.79-.93c-.72-.28-1.5-.55-2.34-.82a9.75,9.75,0,0,1-2.33-1.09,5.8,5.8,0,0,1-1.8-1.79,5.24,5.24,0,0,1-.71-2.87,5.35,5.35,0,0,1,.52-2.4,5.19,5.19,0,0,1,1.45-1.81,6.77,6.77,0,0,1,2.23-1.12,10,10,0,0,1,2.8-.37,8.13,8.13,0,0,1,5.27,1.56,6,6,0,0,1,2.17,4.31H96.82a2.64,2.64,0,0,0-.71-1.55,2.1,2.1,0,0,0-1.55-.57,2.06,2.06,0,0,0-1.35.43,1.63,1.63,0,0,0-.53,1.33,1.71,1.71,0,0,0,.71,1.43,7.55,7.55,0,0,0,1.8.93c.71.27,1.49.55,2.33.83a10.09,10.09,0,0,1,2.34,1.12,6,6,0,0,1,1.79,1.82A5.3,5.3,0,0,1,102.36,109.08Z" />
    <path class="cls-3" d="M112.32,98.84a9.34,9.34,0,0,1,3.22.54,7.13,7.13,0,0,1,4.25,4.1,9.41,9.41,0,0,1,0,6.72,7.36,7.36,0,0,1-1.69,2.51,7.22,7.22,0,0,1-2.56,1.58,9.7,9.7,0,0,1-6.44,0,7.35,7.35,0,0,1-2.57-1.58,7.27,7.27,0,0,1-1.71-2.51,9.56,9.56,0,0,1,0-6.72,7.21,7.21,0,0,1,1.71-2.52,7.5,7.5,0,0,1,2.57-1.58A9.34,9.34,0,0,1,112.32,98.84Zm0,4.14a3.39,3.39,0,0,0-1.23.22,2.77,2.77,0,0,0-1,.7,3.5,3.5,0,0,0-.71,1.2,5,5,0,0,0-.26,1.73,4.84,4.84,0,0,0,.26,1.71,3.6,3.6,0,0,0,.71,1.18,2.77,2.77,0,0,0,1,.7,3.39,3.39,0,0,0,1.23.22,3.3,3.3,0,0,0,1.22-.22,2.78,2.78,0,0,0,1-.7,3.44,3.44,0,0,0,.71-1.18,4.83,4.83,0,0,0,.27-1.71,5,5,0,0,0-.27-1.73,3.35,3.35,0,0,0-.71-1.2,2.78,2.78,0,0,0-1-.7A3.3,3.3,0,0,0,112.32,103Z" />
    <path class="cls-3" d="M130.2,98.84a9.38,9.38,0,0,1,3.22.54,7.2,7.2,0,0,1,4.25,4.1,9.56,9.56,0,0,1,0,6.72,7.38,7.38,0,0,1-1.7,2.51,7.17,7.17,0,0,1-2.55,1.58,9.7,9.7,0,0,1-6.44,0,7.23,7.23,0,0,1-4.28-4.09,9.41,9.41,0,0,1,0-6.72,7.21,7.21,0,0,1,1.71-2.52A7.4,7.4,0,0,1,127,99.38,9.34,9.34,0,0,1,130.2,98.84Zm0,4.14a3.39,3.39,0,0,0-1.23.22,2.77,2.77,0,0,0-1,.7,3.35,3.35,0,0,0-.71,1.2,5,5,0,0,0-.27,1.73,4.83,4.83,0,0,0,.27,1.71,3.44,3.44,0,0,0,.71,1.18,2.77,2.77,0,0,0,1,.7,3.39,3.39,0,0,0,1.23.22,3.25,3.25,0,0,0,1.21-.22,2.74,2.74,0,0,0,1-.7,3.6,3.6,0,0,0,.71-1.18,4.83,4.83,0,0,0,.27-1.71,5,5,0,0,0-.27-1.73,3.5,3.5,0,0,0-.71-1.2,2.74,2.74,0,0,0-1-.7A3.25,3.25,0,0,0,130.2,103Z" />
    <path class="cls-3" d="M150.68,98.87a5.41,5.41,0,0,1,4.26,1.76,7.11,7.11,0,0,1,1.58,5v9.06h-4.78v-8.5a3.48,3.48,0,0,0-.82-2.46,2.91,2.91,0,0,0-2.2-.87,3.06,3.06,0,0,0-2.3.9,3.69,3.69,0,0,0-.86,2.65v8.28h-4.79V99h4.79v2.86a5.08,5.08,0,0,1,2-2.2A5.81,5.81,0,0,1,150.68,98.87Z" />
</svg>