<svg xmlns="http://www.w3.org/2000/svg" viewBox="0 0 88 66">
    <title>ProfileSVG</title>
    <path className="cls-1" d="M30.37,56a1.71,1.71,0,0,0,1.69.67l12.85-2.32,9.2,9.28a1.69,1.69,0,0,0,1.21.51A1.73,1.73,0,0,0,57,62.62L58.8,49.68,70.45,43.8a1.71,1.71,0,0,0,1-1.55,1.73,1.73,0,0,0-1-1.53L58.67,35l-2-12.9a1.72,1.72,0,0,0-2.94-.93l-9,9.43-12.89-2.1A1.72,1.72,0,0,0,30,31.05l6.18,11.5-6,11.61A1.74,1.74,0,0,0,30.37,56Zm9.31-12.64a1.76,1.76,0,0,0,0-1.61l-4.95-9.23,10.34,1.69a1.76,1.76,0,0,0,1.52-.51l7.25-7.57,1.59,10.36a1.74,1.74,0,0,0,1,1.29L65.8,42.3,56.44,47a1.73,1.73,0,0,0-.93,1.3L54.09,58.7l-7.37-7.44a1.73,1.73,0,0,0-1.22-.51,1.55,1.55,0,0,0-.31,0L34.88,52.64Z" />
    <path className="cls-1" d="M77.17,13.06,74.05,16.8l-4.85-.46A1.72,1.72,0,0,0,67.59,19l2.59,4.12-1.93,4.47a1.72,1.72,0,0,0,.27,1.79,1.7,1.7,0,0,0,1.73.55L75,28.72l3.65,3.21a1.74,1.74,0,0,0,1.14.43,1.84,1.84,0,0,0,.65-.13,1.7,1.7,0,0,0,1.06-1.48l.33-4.85L86,23.41a1.7,1.7,0,0,0,.83-1.6,1.74,1.74,0,0,0-1.07-1.47l-4.52-1.81-1.07-4.75a1.71,1.71,0,0,0-3-.72Zm1.26,11.71-.15,2.28-1.72-1.51a1.71,1.71,0,0,0-1.13-.43,1.93,1.93,0,0,0-.42.05l-2.22.56.9-2.1A1.69,1.69,0,0,0,73.57,22l-1.22-1.94,2.28.21a1.72,1.72,0,0,0,1.48-.61l1.46-1.76.51,2.24a1.7,1.7,0,0,0,1,1.21l2.13.86-2,1.16A1.72,1.72,0,0,0,78.43,24.77Z" />
    <path className="cls-1" d="M7.1,21.35,5.35,29.66A1.69,1.69,0,0,0,6,31.36a1.7,1.7,0,0,0,1.8.2l7.66-3.66,7.36,4.23a1.72,1.72,0,0,0,.85.23,1.68,1.68,0,0,0,1-.3,1.73,1.73,0,0,0,.75-1.65L24.22,22l6.3-5.69a1.72,1.72,0,0,0-.84-3l-8.35-1.53L17.87,4.06a1.72,1.72,0,0,0-3.08-.12l-4,7.47-8.44.9a1.72,1.72,0,0,0-1.06,2.9Zm6.24-7.51,2.81-5.2L18.57,14a1.71,1.71,0,0,0,1.25,1l5.81,1.07-4.38,4a1.72,1.72,0,0,0-.55,1.51l.78,5.85-5.12-2.94a1.71,1.71,0,0,0-1.6-.06L9.43,27l1.21-5.78a1.7,1.7,0,0,0-.43-1.54L6.13,15.36,12,14.73A1.72,1.72,0,0,0,13.34,13.84Z" />
</svg>