<svg width="76" height="76" viewBox="0 0 76 76" fill="none" xmlns="http://www.w3.org/2000/svg">
<path d="M61.5201 14.48H14.4801C12.6244 14.48 11.1201 15.9843 11.1201 17.84V58.16C11.1201 60.0156 12.6244 61.52 14.4801 61.52H61.5201C63.3758 61.52 64.8801 60.0156 64.8801 58.16V17.84C64.8801 15.9843 63.3758 14.48 61.5201 14.48ZM63.2001 58.16C63.2001 59.0863 62.4465 59.84 61.5201 59.84H14.4801C13.5538 59.84 12.8001 59.0863 12.8001 58.16V17.84C12.8001 16.9136 13.5538 16.16 14.4801 16.16H61.5201C62.4465 16.16 63.2001 16.9136 63.2001 17.84V58.16Z" fill="#454545"/>
<path d="M38.0003 37.9999C41.7116 37.9999 44.7203 34.6151 44.7203 30.4399C44.7203 26.2646 41.7116 22.8799 38.0003 22.8799C34.2889 22.8799 31.2803 26.2646 31.2803 30.4399C31.2803 34.6151 34.2889 37.9999 38.0003 37.9999ZM38.0003 24.5599C40.7793 24.5599 43.0403 27.1977 43.0403 30.4399C43.0403 33.6821 40.7793 36.3199 38.0003 36.3199C35.2212 36.3199 32.9603 33.6821 32.9603 30.4399C32.9603 27.1977 35.2212 24.5599 38.0003 24.5599Z" fill="#454545"/>
<path d="M38 38.8398C30.5773 38.8398 24.5601 45.0414 24.5601 52.6914C24.5601 53.7041 24.672 54.6889 24.8722 55.6398H51.1279C51.3281 54.6889 51.4401 53.7041 51.4401 52.6914C51.4401 45.0414 45.4227 38.8398 38 38.8398ZM49.6936 53.9598H26.3065C26.2623 53.5344 26.2401 53.1106 26.2401 52.6914C26.2401 45.98 31.5155 40.5198 38 40.5198C44.4845 40.5198 49.7601 45.98 49.7601 52.6914C49.7601 53.1106 49.7378 53.5344 49.6936 53.9598Z" fill="#454545"/>
</svg>
