<svg width="57" height="56" viewBox="0 0 57 56" fill="none" xmlns="http://www.w3.org/2000/svg">
<g clip-path="url(#clip0_482_394)">
<path d="M32.0875 28C32.0875 36.6975 25.0175 43.75 16.292 43.75C14.2209 43.7528 12.1696 43.3476 10.2551 42.5576C8.34062 41.7675 6.60049 40.6082 5.13406 39.1457C3.66764 37.6831 2.50364 35.9461 1.70853 34.0337C0.913414 32.1213 0.502756 30.0711 0.5 28C0.5 19.299 7.57 12.25 16.292 12.25C18.3634 12.2468 20.4151 12.6517 22.33 13.4415C24.2449 14.2313 25.9854 15.3906 27.4522 16.8531C28.919 18.3157 30.0833 20.0529 30.8786 21.9655C31.674 23.8781 32.0847 25.9286 32.0875 28ZM49.4125 28C49.4125 36.19 45.8775 42.826 41.5165 42.826C37.1555 42.826 33.6205 36.1865 33.6205 28C33.6205 19.81 37.1555 13.174 41.5165 13.174C45.8775 13.174 49.4125 19.8135 49.4125 28ZM56.5 28C56.5 35.336 55.2575 41.2825 53.721 41.2825C52.188 41.2825 50.9455 35.3325 50.9455 28C50.9455 20.664 52.188 14.7175 53.7245 14.7175C55.2575 14.7175 56.5 20.664 56.5 28Z" fill="url(#paint0_linear_482_394)"/>
</g>
<defs>
<linearGradient id="paint0_linear_482_394" x1="28.5" y1="12.25" x2="28.5" y2="43.75" gradientUnits="userSpaceOnUse">
<stop stop-color="#5C77E6"/>
<stop offset="1" stop-color="#274AC8"/>
</linearGradient>
<clipPath id="clip0_482_394">
<rect width="56" height="56" fill="white" transform="translate(0.5)"/>
</clipPath>
</defs>
</svg>
