<svg width="50" height="50" viewBox="0 0 50 50" fill="none" xmlns="http://www.w3.org/2000/svg">
<path d="M49.2563 10.2856C47.5167 11.0565 45.648 11.5773 43.6834 11.8127C45.7105 10.5998 47.227 8.69076 47.9501 6.44187C46.0456 7.5731 43.9612 8.36936 41.7876 8.79604C40.3259 7.23534 38.3898 6.20088 36.2799 5.85327C34.17 5.50566 32.0044 5.86435 30.1193 6.87364C28.2342 7.88294 26.735 9.48637 25.8546 11.435C24.9741 13.3836 24.7616 15.5684 25.2501 17.6502C21.3911 17.4564 17.616 16.4534 14.1697 14.7063C10.7234 12.9591 7.68307 10.5068 5.2459 7.50853C4.41256 8.94603 3.9334 10.6127 3.9334 12.3877C3.93247 13.9856 4.32597 15.559 5.07898 16.9684C5.83199 18.3777 6.92123 19.5794 8.25006 20.4669C6.70897 20.4178 5.20188 20.0014 3.85423 19.2523V19.3773C3.85408 21.6184 4.6293 23.7906 6.04836 25.5252C7.46743 27.2598 9.44292 28.4501 11.6396 28.894C10.21 29.2809 8.71118 29.3379 7.25631 29.0606C7.8761 30.989 9.08339 32.6753 10.7092 33.8834C12.3349 35.0915 14.2978 35.761 16.323 35.7981C12.8851 38.4969 8.63941 39.9608 4.26882 39.9544C3.49461 39.9546 2.72106 39.9094 1.95215 39.819C6.38856 42.6714 11.5529 44.1852 16.8271 44.1794C34.6813 44.1794 44.4417 29.3919 44.4417 16.5669C44.4417 16.1502 44.4313 15.7294 44.4126 15.3127C46.3111 13.9397 47.9499 12.2396 49.2521 10.2919L49.2563 10.2856Z" fill="url(#paint0_linear_482_752)"/>
<defs>
<linearGradient id="paint0_linear_482_752" x1="25.6042" y1="5.72412" x2="25.6042" y2="44.1794" gradientUnits="userSpaceOnUse">
<stop stop-color="#5C77E6"/>
<stop offset="1" stop-color="#274AC8"/>
</linearGradient>
</defs>
</svg>
