<svg width="57" height="56" viewBox="0 0 57 56" fill="none" xmlns="http://www.w3.org/2000/svg">
<g clip-path="url(#clip0_482_702)">
<path d="M47.9065 10.4811C44.3365 8.87111 40.5098 7.68111 36.5081 7.00444C36.4725 6.9976 36.4356 7.00201 36.4026 7.01706C36.3696 7.03211 36.342 7.05706 36.3238 7.08844C35.8338 7.94944 35.2878 9.07178 34.9051 9.95844C30.661 9.32433 26.3463 9.32433 22.1021 9.95844C21.6759 8.97578 21.1953 8.01763 20.6625 7.08844C20.6444 7.05667 20.6171 7.03116 20.5842 7.01532C20.5512 6.99947 20.5142 6.99405 20.4781 6.99978C16.4788 7.67644 12.6521 8.86644 9.07981 10.4788C9.04908 10.4917 9.02302 10.5136 9.00515 10.5418C1.74381 21.2168 -0.246522 31.6281 0.731145 41.9088C0.733865 41.934 0.741681 41.9583 0.754116 41.9804C0.766552 42.0024 0.783346 42.0217 0.803478 42.0371C5.04173 45.1228 9.76893 47.4734 14.7871 48.9904C14.8221 49.0012 14.8595 49.0012 14.8945 48.9904C14.9295 48.9795 14.9604 48.9584 14.9831 48.9298C16.063 47.4856 17.0199 45.9535 17.8438 44.3494C17.8552 44.3275 17.8618 44.3034 17.8631 44.2787C17.8644 44.254 17.8604 44.2293 17.8513 44.2063C17.8423 44.1833 17.8284 44.1625 17.8106 44.1453C17.7928 44.1281 17.7715 44.115 17.7481 44.1068C16.2408 43.5391 14.7803 42.8541 13.3801 42.0581C13.355 42.0437 13.3338 42.0234 13.3184 41.9988C13.3031 41.9742 13.2941 41.9462 13.2923 41.9173C13.2904 41.8884 13.2958 41.8595 13.3078 41.8331C13.3199 41.8068 13.3384 41.7839 13.3615 41.7664C13.6555 41.5494 13.9495 41.3231 14.2295 41.0968C14.2547 41.0764 14.285 41.0635 14.3172 41.0593C14.3493 41.0552 14.382 41.0601 14.4115 41.0734C23.5745 45.1894 33.4981 45.1894 42.5538 41.0734C42.5834 41.0593 42.6164 41.0538 42.649 41.0575C42.6816 41.0612 42.7125 41.074 42.7381 41.0944C43.0181 41.3231 43.3098 41.5494 43.6062 41.7664C43.6295 41.7835 43.6482 41.8061 43.6607 41.8322C43.6732 41.8584 43.679 41.8871 43.6776 41.916C43.6762 41.9449 43.6677 41.973 43.6528 41.9978C43.6378 42.0226 43.617 42.0433 43.5921 42.0581C42.1968 42.8608 40.7455 43.5398 39.2218 44.1044C39.1984 44.1129 39.1771 44.1263 39.1593 44.1437C39.1415 44.1611 39.1276 44.1821 39.1185 44.2053C39.1095 44.2285 39.1055 44.2533 39.1068 44.2782C39.1081 44.303 39.1147 44.3273 39.1261 44.3494C39.9661 45.9524 40.9275 47.4784 41.9845 48.9274C42.0065 48.9572 42.0371 48.9794 42.0722 48.9911C42.1072 49.0028 42.1451 49.0034 42.1805 48.9928C47.2073 47.4799 51.9422 45.1283 56.1851 42.0371C56.2058 42.0226 56.2232 42.0039 56.2361 41.9822C56.249 41.9604 56.2571 41.9362 56.2598 41.9111C57.4265 30.0251 54.3045 19.6978 47.9788 10.5464C47.9633 10.5167 47.9376 10.4935 47.9065 10.4811ZM19.2135 35.6484C16.4555 35.6484 14.1805 33.1541 14.1805 30.0951C14.1805 27.0338 16.4111 24.5418 19.2135 24.5418C22.0368 24.5418 24.2908 27.0548 24.2465 30.0951C24.2465 33.1564 22.0158 35.6484 19.2135 35.6484ZM37.8218 35.6484C35.0615 35.6484 32.7888 33.1541 32.7888 30.0951C32.7888 27.0338 35.0171 24.5418 37.8218 24.5418C40.6451 24.5418 42.8991 27.0548 42.8548 30.0951C42.8548 33.1564 40.6475 35.6484 37.8218 35.6484Z" fill="url(#paint0_linear_482_702)"/>
</g>
<defs>
<linearGradient id="paint0_linear_482_702" x1="28.4998" y1="6.99756" x2="28.4998" y2="49.0003" gradientUnits="userSpaceOnUse">
<stop stop-color="#5C77E6"/>
<stop offset="1" stop-color="#274AC8"/>
</linearGradient>
<clipPath id="clip0_482_702">
<rect width="56" height="56" fill="white" transform="translate(0.5)"/>
</clipPath>
</defs>
</svg>
